G04 #@! TF.GenerationSoftware,KiCad,Pcbnew,5.1.7-a382d34a8~87~ubuntu20.04.1*
G04 #@! TF.CreationDate,2020-11-21T01:21:06+00:00*
G04 #@! TF.ProjectId,ILI2511-N7,494c4932-3531-4312-9d4e-372e6b696361,rev?*
G04 #@! TF.SameCoordinates,Original*
G04 #@! TF.FileFunction,Copper,L2,Bot*
G04 #@! TF.FilePolarity,Positive*
%FSLAX46Y46*%
G04 Gerber Fmt 4.6, Leading zero omitted, Abs format (unit mm)*
G04 Created by KiCad (PCBNEW 5.1.7-a382d34a8~87~ubuntu20.04.1) date 2020-11-21 01:21:06*
%MOMM*%
%LPD*%
G01*
G04 APERTURE LIST*
G04 #@! TA.AperFunction,ComponentPad*
%ADD10O,2.250000X1.250000*%
G04 #@! TD*
G04 #@! TA.AperFunction,ComponentPad*
%ADD11O,1.750000X1.250000*%
G04 #@! TD*
G04 #@! TA.AperFunction,ComponentPad*
%ADD12O,1.700000X1.700000*%
G04 #@! TD*
G04 #@! TA.AperFunction,ComponentPad*
%ADD13R,1.700000X1.700000*%
G04 #@! TD*
G04 #@! TA.AperFunction,ViaPad*
%ADD14C,0.600000*%
G04 #@! TD*
G04 #@! TA.AperFunction,ViaPad*
%ADD15C,0.500000*%
G04 #@! TD*
G04 #@! TA.AperFunction,Conductor*
%ADD16C,0.200000*%
G04 #@! TD*
G04 #@! TA.AperFunction,Conductor*
%ADD17C,0.100000*%
G04 #@! TD*
G04 APERTURE END LIST*
D10*
X130220000Y-70900000D03*
D11*
X134220000Y-70924400D03*
X134220000Y-82100000D03*
D10*
X130220000Y-82050000D03*
D12*
X130050000Y-66000000D03*
X132590000Y-66000000D03*
X135130000Y-66000000D03*
X137670000Y-66000000D03*
X140210000Y-66000000D03*
D13*
X142750000Y-66000000D03*
D14*
X155920000Y-84200000D03*
X165780000Y-87500000D03*
X165810000Y-72630000D03*
X165810000Y-65580000D03*
X155940000Y-79250000D03*
D15*
X141870000Y-83110000D03*
X141100000Y-82350000D03*
X148064500Y-70273700D03*
X138869100Y-83704900D03*
X142240000Y-75890000D03*
X142400000Y-72080000D03*
X136417700Y-74084500D03*
X137654600Y-76720000D03*
X161760000Y-72640000D03*
X154350000Y-88250000D03*
X161060000Y-72770000D03*
X153950000Y-87660000D03*
X153550000Y-88250000D03*
X161170000Y-72070000D03*
X160460000Y-72170000D03*
X153150000Y-87660000D03*
X152750000Y-88250000D03*
X160570000Y-71470000D03*
X152350000Y-87660000D03*
X159860000Y-71570000D03*
X159970000Y-70870000D03*
X151950000Y-88250000D03*
X151550000Y-87660000D03*
X159260000Y-70970000D03*
X151150000Y-88250000D03*
X159370000Y-70270000D03*
X150750000Y-87660000D03*
X158660000Y-70370000D03*
X150350000Y-88250000D03*
X158770000Y-69670000D03*
X158060000Y-69770000D03*
X149950000Y-87660000D03*
X158170000Y-69070000D03*
X149550000Y-88250000D03*
X149150000Y-87660000D03*
X157460000Y-69170000D03*
X146820000Y-86080000D03*
X157570000Y-68470000D03*
X147560000Y-85680000D03*
X156860000Y-68570000D03*
X146820000Y-85280000D03*
X156970000Y-67870000D03*
X147560000Y-84880000D03*
X156260000Y-67970000D03*
X156370000Y-67270000D03*
X146820000Y-84480000D03*
X155660000Y-67370000D03*
X147560000Y-84080000D03*
X146820000Y-83680000D03*
X155770000Y-66670000D03*
X155060000Y-66770000D03*
X147560000Y-83280000D03*
X149291600Y-71972000D03*
X148347500Y-73238200D03*
X143998700Y-69360000D03*
X148848700Y-71040800D03*
X137670000Y-67470000D03*
X138060000Y-79010000D03*
X136030000Y-78240000D03*
X137179600Y-75829600D03*
X136040000Y-77250000D03*
X136040000Y-76260000D03*
D16*
X134220000Y-70924400D02*
X134864000Y-71568400D01*
X134864000Y-71568400D02*
X134864000Y-81883700D01*
X134220000Y-82100000D02*
X134456000Y-82100000D01*
X134456000Y-82100000D02*
X134481000Y-82075000D01*
X155920000Y-84200000D02*
X155920000Y-79270000D01*
X155920000Y-79270000D02*
X155940000Y-79250000D01*
X165830000Y-72650000D02*
X165810000Y-72630000D01*
X165810000Y-72630000D02*
X165810000Y-65580000D01*
X155940000Y-79250000D02*
X162560000Y-72630000D01*
X162560000Y-72630000D02*
X165810000Y-72630000D01*
X134481000Y-82075000D02*
X134672000Y-82075000D01*
X134672000Y-82075000D02*
X134864000Y-81883700D01*
X141860000Y-83110000D02*
X141100000Y-82350000D01*
X141870000Y-83110000D02*
X141860000Y-83110000D01*
X165830000Y-87500000D02*
X165830000Y-87470000D01*
X159220000Y-87500000D02*
X155920000Y-84200000D01*
X165830000Y-87500000D02*
X159220000Y-87500000D01*
X165780000Y-72660000D02*
X165810000Y-72630000D01*
X165780000Y-87500000D02*
X165780000Y-72660000D01*
X141260300Y-66000000D02*
X141260300Y-65474800D01*
X141260300Y-65474800D02*
X141785400Y-64949700D01*
X141785400Y-64949700D02*
X143712700Y-64949700D01*
X143712700Y-64949700D02*
X144189900Y-65426900D01*
X144189900Y-65426900D02*
X144189900Y-66399100D01*
X144189900Y-66399100D02*
X148064500Y-70273700D01*
X140210000Y-66000000D02*
X141260300Y-66000000D01*
X142750000Y-66000000D02*
X142750000Y-67050300D01*
X142750000Y-67050300D02*
X138869100Y-70931200D01*
X138869100Y-70931200D02*
X138869100Y-83704900D01*
X142240000Y-72240000D02*
X142400000Y-72080000D01*
X142240000Y-75890000D02*
X142240000Y-72240000D01*
X136417700Y-74084500D02*
X137654500Y-75321300D01*
X137654500Y-75321300D02*
X137654500Y-76720000D01*
X137654500Y-76720000D02*
X137654600Y-76720000D01*
D17*
X161760000Y-72640000D02*
X155340000Y-79060000D01*
X155340000Y-79060000D02*
X155340000Y-85730000D01*
X155340000Y-85730000D02*
X154350000Y-86720000D01*
X154350000Y-86720000D02*
X154350000Y-88250000D01*
X153950000Y-87660000D02*
X153950000Y-86660000D01*
X153950000Y-86660000D02*
X155020000Y-85590000D01*
X155020000Y-85590000D02*
X155020000Y-78810000D01*
X155020000Y-78810000D02*
X161060000Y-72770000D01*
X161170000Y-72070000D02*
X154708000Y-78532000D01*
X154708000Y-78532000D02*
X154690000Y-78532000D01*
X154690000Y-78532000D02*
X154690000Y-85460000D01*
X154690000Y-85460000D02*
X153550000Y-86600000D01*
X153550000Y-86600000D02*
X153550000Y-88250000D01*
X153150000Y-87660000D02*
X153150000Y-86550000D01*
X153150000Y-86550000D02*
X154370000Y-85330000D01*
X154370000Y-85330000D02*
X154370000Y-78260000D01*
X154370000Y-78260000D02*
X160460000Y-72170000D01*
X160570000Y-71470000D02*
X154052000Y-77988000D01*
X154052000Y-77988000D02*
X154050000Y-77988000D01*
X154050000Y-77988000D02*
X154050000Y-85200000D01*
X154050000Y-85200000D02*
X152750000Y-86500000D01*
X152750000Y-86500000D02*
X152750000Y-88250000D01*
X152350000Y-87660000D02*
X152350000Y-86460000D01*
X152350000Y-86460000D02*
X153730000Y-85080000D01*
X153730000Y-85080000D02*
X153730000Y-77700000D01*
X153730000Y-77700000D02*
X159860000Y-71570000D01*
X159970000Y-70870000D02*
X153402000Y-77438000D01*
X153402000Y-77438000D02*
X153400000Y-77438000D01*
X153400000Y-77438000D02*
X153400000Y-84970000D01*
X153400000Y-84970000D02*
X151950000Y-86420000D01*
X151950000Y-86420000D02*
X151950000Y-88250000D01*
X151550000Y-87660000D02*
X151550000Y-86380000D01*
X151550000Y-86380000D02*
X153080000Y-84850000D01*
X153080000Y-84850000D02*
X153080000Y-77150000D01*
X153080000Y-77150000D02*
X159260000Y-70970000D01*
X159352000Y-70270000D02*
X152770000Y-76852000D01*
X152770000Y-84710000D02*
X151150000Y-86330000D01*
X151150000Y-86330000D02*
X151150000Y-88250000D01*
X152770000Y-76852000D02*
X152770000Y-84710000D01*
X159370000Y-70270000D02*
X159352000Y-70270000D01*
X150750000Y-87660000D02*
X150750000Y-86290000D01*
X150750000Y-86290000D02*
X152460000Y-84580000D01*
X152460000Y-84580000D02*
X152460000Y-76570000D01*
X152460000Y-76570000D02*
X158660000Y-70370000D01*
X150350000Y-88250000D02*
X150350000Y-86250000D01*
X150350000Y-86250000D02*
X152150000Y-84450000D01*
X152150000Y-84450000D02*
X152150000Y-76272000D01*
X152150000Y-76272000D02*
X158752000Y-69670000D01*
X158752000Y-69670000D02*
X158770000Y-69670000D01*
X149950000Y-87660000D02*
X149950000Y-86210000D01*
X149950000Y-86210000D02*
X151840000Y-84320000D01*
X151840000Y-84320000D02*
X151840000Y-75990000D01*
X151840000Y-75990000D02*
X158060000Y-69770000D01*
X149550000Y-87967200D02*
X149490000Y-88027200D01*
X149490000Y-88027200D02*
X149490000Y-88150000D01*
X149550000Y-87967200D02*
X149550000Y-88250000D01*
X158170000Y-69070000D02*
X151532000Y-75708000D01*
X151532000Y-75708000D02*
X151530000Y-75708000D01*
X151530000Y-75708000D02*
X151530000Y-84190000D01*
X151530000Y-84190000D02*
X149550000Y-86170000D01*
X149550000Y-86170000D02*
X149550000Y-87967200D01*
X149500000Y-88160000D02*
X149490000Y-88150000D01*
X149150000Y-87660000D02*
X149150000Y-86130000D01*
X149150000Y-86130000D02*
X151220000Y-84060000D01*
X151220000Y-84060000D02*
X151220000Y-75410000D01*
X151220000Y-75410000D02*
X157460000Y-69170000D01*
X157570000Y-68470000D02*
X150912000Y-75128000D01*
X150912000Y-75128000D02*
X150910000Y-75128000D01*
X150910000Y-75128000D02*
X150910000Y-83920000D01*
X150910000Y-83920000D02*
X148750000Y-86080000D01*
X148750000Y-86080000D02*
X146820000Y-86080000D01*
X147560000Y-85680000D02*
X148750000Y-85680000D01*
X148750000Y-85680000D02*
X150600000Y-83830000D01*
X150600000Y-83830000D02*
X150600000Y-74830000D01*
X150600000Y-74830000D02*
X156860000Y-68570000D01*
X156970000Y-67870000D02*
X150308000Y-74532000D01*
X150308000Y-74532000D02*
X150290000Y-74532000D01*
X150290000Y-74532000D02*
X150290000Y-83740000D01*
X150290000Y-83740000D02*
X148750000Y-85280000D01*
X148750000Y-85280000D02*
X146820000Y-85280000D01*
X147560000Y-84880000D02*
X148750000Y-84880000D01*
X148750000Y-84880000D02*
X149980000Y-83650000D01*
X149980000Y-83650000D02*
X149980000Y-74250000D01*
X149980000Y-74250000D02*
X156260000Y-67970000D01*
X156370000Y-67270000D02*
X149672000Y-73968000D01*
X149672000Y-73968000D02*
X149670000Y-73968000D01*
X149670000Y-73968000D02*
X149670000Y-83560000D01*
X149670000Y-83560000D02*
X148750000Y-84480000D01*
X148750000Y-84480000D02*
X146820000Y-84480000D01*
X147560000Y-84080000D02*
X148750000Y-84080000D01*
X148750000Y-84080000D02*
X149360000Y-83470000D01*
X149360000Y-83470000D02*
X149360000Y-73670000D01*
X149360000Y-73670000D02*
X155660000Y-67370000D01*
X155770000Y-66670000D02*
X149052000Y-73388000D01*
X149052000Y-73388000D02*
X149050000Y-73388000D01*
X149050000Y-73388000D02*
X149050000Y-83380000D01*
X149050000Y-83380000D02*
X148750000Y-83680000D01*
X148750000Y-83680000D02*
X146820000Y-83680000D01*
X147560000Y-83280000D02*
X148750000Y-83280000D01*
X148750000Y-73080000D02*
X155060000Y-66770000D01*
X148750000Y-83280000D02*
X148750000Y-73080000D01*
D16*
X133640300Y-66000000D02*
X135291200Y-64349100D01*
X135291200Y-64349100D02*
X143961300Y-64349100D01*
X143961300Y-64349100D02*
X149344600Y-69732400D01*
X149344600Y-69732400D02*
X149344600Y-71919000D01*
X149344600Y-71919000D02*
X149291600Y-71972000D01*
X132590000Y-66000000D02*
X133640300Y-66000000D01*
X148347500Y-73238200D02*
X144469300Y-69360000D01*
X144469300Y-69360000D02*
X143998700Y-69360000D01*
X138720300Y-66000000D02*
X140070900Y-64649400D01*
X140070900Y-64649400D02*
X143837000Y-64649400D01*
X143837000Y-64649400D02*
X145690200Y-66502600D01*
X145690200Y-66502600D02*
X145690200Y-67250000D01*
X145690200Y-67250000D02*
X148848700Y-70408500D01*
X148848700Y-70408500D02*
X148848700Y-71040800D01*
X137670000Y-66000000D02*
X138720300Y-66000000D01*
X136030000Y-78240000D02*
X136800000Y-79010000D01*
X136800000Y-79010000D02*
X138060000Y-79010000D01*
D17*
X136040000Y-76663100D02*
X136346100Y-76663100D01*
X136346100Y-76663100D02*
X137179600Y-75829600D01*
D16*
X136040000Y-76663100D02*
X136040000Y-77250000D01*
X136040000Y-76260000D02*
X136040000Y-76663100D01*
M02*
