G04 #@! TF.GenerationSoftware,KiCad,Pcbnew,5.1.7-a382d34a8~87~ubuntu20.04.1*
G04 #@! TF.CreationDate,2020-11-13T02:39:59+00:00*
G04 #@! TF.ProjectId,ILI2511-N7,494c4932-3531-4312-9d4e-372e6b696361,rev?*
G04 #@! TF.SameCoordinates,Original*
G04 #@! TF.FileFunction,Legend,Top*
G04 #@! TF.FilePolarity,Positive*
%FSLAX46Y46*%
G04 Gerber Fmt 4.6, Leading zero omitted, Abs format (unit mm)*
G04 Created by KiCad (PCBNEW 5.1.7-a382d34a8~87~ubuntu20.04.1) date 2020-11-13 02:39:59*
%MOMM*%
%LPD*%
G01*
G04 APERTURE LIST*
%ADD10C,0.120000*%
%ADD11C,0.010000*%
%ADD12C,0.100000*%
%ADD13C,0.150000*%
%ADD14C,0.254000*%
G04 APERTURE END LIST*
D10*
X143070000Y-83730000D02*
X142380000Y-83730000D01*
X142340000Y-85610000D02*
X142340000Y-84970000D01*
X144560000Y-85610000D02*
X144560000Y-84970000D01*
X143290000Y-83930000D02*
X143620000Y-83930000D01*
X143280000Y-86650000D02*
X143620000Y-86650000D01*
X143070000Y-83730000D02*
G75*
G02*
X143290000Y-83930000I-90000J-320000D01*
G01*
D11*
G36*
X161651114Y-65875495D02*
G01*
X161576461Y-65838273D01*
X161510569Y-65769739D01*
X161492423Y-65744352D01*
X161472655Y-65711134D01*
X161459828Y-65675055D01*
X161452490Y-65626902D01*
X161449187Y-65557464D01*
X161448462Y-65465794D01*
X161451737Y-65340170D01*
X161463123Y-65245846D01*
X161484959Y-65175477D01*
X161519581Y-65121714D01*
X161569330Y-65077212D01*
X161572986Y-65074577D01*
X161622015Y-65047623D01*
X161681055Y-65034288D01*
X161756141Y-65031000D01*
X161878205Y-65031000D01*
X161878256Y-64912503D01*
X161879392Y-64846508D01*
X161886314Y-64807798D01*
X161904402Y-64784581D01*
X161939038Y-64765067D01*
X161947355Y-64761080D01*
X161986280Y-64742397D01*
X162016417Y-64730597D01*
X162038826Y-64729578D01*
X162054567Y-64743239D01*
X162064698Y-64775478D01*
X162070277Y-64830196D01*
X162072365Y-64911289D01*
X162072019Y-65022656D01*
X162070300Y-65168198D01*
X162069763Y-65211731D01*
X162067828Y-65361795D01*
X162066096Y-65459958D01*
X161878308Y-65459958D01*
X161877252Y-65376636D01*
X161872562Y-65322120D01*
X161861949Y-65286163D01*
X161843128Y-65258518D01*
X161830350Y-65245035D01*
X161778110Y-65205583D01*
X161731858Y-65202372D01*
X161684133Y-65234951D01*
X161682923Y-65236154D01*
X161663506Y-65261332D01*
X161651693Y-65295553D01*
X161645735Y-65348252D01*
X161643880Y-65428869D01*
X161643846Y-65446729D01*
X161648330Y-65557825D01*
X161662926Y-65634839D01*
X161689350Y-65681853D01*
X161729317Y-65702950D01*
X161752416Y-65705077D01*
X161807238Y-65695100D01*
X161844842Y-65662248D01*
X161867477Y-65602143D01*
X161877394Y-65510402D01*
X161878308Y-65459958D01*
X162066096Y-65459958D01*
X162065778Y-65477940D01*
X162063127Y-65565321D01*
X162059394Y-65629095D01*
X162054093Y-65674418D01*
X162046742Y-65706445D01*
X162036857Y-65730332D01*
X162023954Y-65751236D01*
X162018421Y-65759102D01*
X161945031Y-65833405D01*
X161852240Y-65875533D01*
X161744904Y-65887278D01*
X161651114Y-65875495D01*
G37*
X161651114Y-65875495D02*
X161576461Y-65838273D01*
X161510569Y-65769739D01*
X161492423Y-65744352D01*
X161472655Y-65711134D01*
X161459828Y-65675055D01*
X161452490Y-65626902D01*
X161449187Y-65557464D01*
X161448462Y-65465794D01*
X161451737Y-65340170D01*
X161463123Y-65245846D01*
X161484959Y-65175477D01*
X161519581Y-65121714D01*
X161569330Y-65077212D01*
X161572986Y-65074577D01*
X161622015Y-65047623D01*
X161681055Y-65034288D01*
X161756141Y-65031000D01*
X161878205Y-65031000D01*
X161878256Y-64912503D01*
X161879392Y-64846508D01*
X161886314Y-64807798D01*
X161904402Y-64784581D01*
X161939038Y-64765067D01*
X161947355Y-64761080D01*
X161986280Y-64742397D01*
X162016417Y-64730597D01*
X162038826Y-64729578D01*
X162054567Y-64743239D01*
X162064698Y-64775478D01*
X162070277Y-64830196D01*
X162072365Y-64911289D01*
X162072019Y-65022656D01*
X162070300Y-65168198D01*
X162069763Y-65211731D01*
X162067828Y-65361795D01*
X162066096Y-65459958D01*
X161878308Y-65459958D01*
X161877252Y-65376636D01*
X161872562Y-65322120D01*
X161861949Y-65286163D01*
X161843128Y-65258518D01*
X161830350Y-65245035D01*
X161778110Y-65205583D01*
X161731858Y-65202372D01*
X161684133Y-65234951D01*
X161682923Y-65236154D01*
X161663506Y-65261332D01*
X161651693Y-65295553D01*
X161645735Y-65348252D01*
X161643880Y-65428869D01*
X161643846Y-65446729D01*
X161648330Y-65557825D01*
X161662926Y-65634839D01*
X161689350Y-65681853D01*
X161729317Y-65702950D01*
X161752416Y-65705077D01*
X161807238Y-65695100D01*
X161844842Y-65662248D01*
X161867477Y-65602143D01*
X161877394Y-65510402D01*
X161878308Y-65459958D01*
X162066096Y-65459958D01*
X162065778Y-65477940D01*
X162063127Y-65565321D01*
X162059394Y-65629095D01*
X162054093Y-65674418D01*
X162046742Y-65706445D01*
X162036857Y-65730332D01*
X162023954Y-65751236D01*
X162018421Y-65759102D01*
X161945031Y-65833405D01*
X161852240Y-65875533D01*
X161744904Y-65887278D01*
X161651114Y-65875495D01*
G36*
X160148336Y-65864911D02*
G01*
X160085633Y-65828642D01*
X160042039Y-65792642D01*
X160010155Y-65754925D01*
X159988190Y-65708801D01*
X159974351Y-65647579D01*
X159966847Y-65564569D01*
X159963883Y-65453081D01*
X159963539Y-65372938D01*
X159963539Y-65077935D01*
X160129615Y-65003485D01*
X160139385Y-65326598D01*
X160143421Y-65447271D01*
X160147656Y-65534859D01*
X160152903Y-65595350D01*
X160159975Y-65634732D01*
X160169689Y-65658993D01*
X160182856Y-65674120D01*
X160187081Y-65677394D01*
X160251091Y-65702966D01*
X160315792Y-65692847D01*
X160354308Y-65666000D01*
X160369975Y-65646976D01*
X160380820Y-65622012D01*
X160387712Y-65584166D01*
X160391521Y-65526498D01*
X160393117Y-65442065D01*
X160393385Y-65354072D01*
X160393437Y-65243677D01*
X160395328Y-65165537D01*
X160401655Y-65112835D01*
X160415017Y-65078758D01*
X160438015Y-65056489D01*
X160473246Y-65039213D01*
X160520303Y-65021262D01*
X160571697Y-65001722D01*
X160565579Y-65348515D01*
X160563116Y-65473532D01*
X160560233Y-65565918D01*
X160556102Y-65632119D01*
X160549893Y-65678580D01*
X160540774Y-65711744D01*
X160527917Y-65738056D01*
X160512416Y-65761271D01*
X160437629Y-65835431D01*
X160346372Y-65878316D01*
X160247117Y-65888588D01*
X160148336Y-65864911D01*
G37*
X160148336Y-65864911D02*
X160085633Y-65828642D01*
X160042039Y-65792642D01*
X160010155Y-65754925D01*
X159988190Y-65708801D01*
X159974351Y-65647579D01*
X159966847Y-65564569D01*
X159963883Y-65453081D01*
X159963539Y-65372938D01*
X159963539Y-65077935D01*
X160129615Y-65003485D01*
X160139385Y-65326598D01*
X160143421Y-65447271D01*
X160147656Y-65534859D01*
X160152903Y-65595350D01*
X160159975Y-65634732D01*
X160169689Y-65658993D01*
X160182856Y-65674120D01*
X160187081Y-65677394D01*
X160251091Y-65702966D01*
X160315792Y-65692847D01*
X160354308Y-65666000D01*
X160369975Y-65646976D01*
X160380820Y-65622012D01*
X160387712Y-65584166D01*
X160391521Y-65526498D01*
X160393117Y-65442065D01*
X160393385Y-65354072D01*
X160393437Y-65243677D01*
X160395328Y-65165537D01*
X160401655Y-65112835D01*
X160415017Y-65078758D01*
X160438015Y-65056489D01*
X160473246Y-65039213D01*
X160520303Y-65021262D01*
X160571697Y-65001722D01*
X160565579Y-65348515D01*
X160563116Y-65473532D01*
X160560233Y-65565918D01*
X160556102Y-65632119D01*
X160549893Y-65678580D01*
X160540774Y-65711744D01*
X160527917Y-65738056D01*
X160512416Y-65761271D01*
X160437629Y-65835431D01*
X160346372Y-65878316D01*
X160247117Y-65888588D01*
X160148336Y-65864911D01*
G36*
X162403114Y-65872744D02*
G01*
X162311536Y-65824591D01*
X162243951Y-65747095D01*
X162219943Y-65697273D01*
X162201262Y-65622467D01*
X162191699Y-65527948D01*
X162190792Y-65424790D01*
X162198079Y-65324065D01*
X162213097Y-65236847D01*
X162235385Y-65174209D01*
X162242235Y-65163421D01*
X162323368Y-65082895D01*
X162419734Y-65034664D01*
X162524299Y-65020550D01*
X162630032Y-65042371D01*
X162659457Y-65055453D01*
X162716759Y-65095769D01*
X162767050Y-65149225D01*
X162771803Y-65156005D01*
X162791122Y-65188679D01*
X162803892Y-65223606D01*
X162811436Y-65269586D01*
X162815076Y-65335416D01*
X162816135Y-65429895D01*
X162816154Y-65451077D01*
X162816106Y-65457818D01*
X162620769Y-65457818D01*
X162619632Y-65368651D01*
X162615159Y-65309480D01*
X162605754Y-65271259D01*
X162589824Y-65244947D01*
X162581692Y-65236154D01*
X162534942Y-65202739D01*
X162489553Y-65204263D01*
X162443660Y-65233248D01*
X162416288Y-65264191D01*
X162400077Y-65309357D01*
X162390974Y-65380580D01*
X162390349Y-65388886D01*
X162388796Y-65517963D01*
X162405035Y-65613828D01*
X162438848Y-65675893D01*
X162490016Y-65703568D01*
X162508280Y-65705077D01*
X162556240Y-65697487D01*
X162589047Y-65671192D01*
X162609105Y-65620905D01*
X162618822Y-65541336D01*
X162620769Y-65457818D01*
X162816106Y-65457818D01*
X162815426Y-65551751D01*
X162812371Y-65622094D01*
X162805678Y-65670837D01*
X162794040Y-65706712D01*
X162776147Y-65738452D01*
X162772192Y-65744352D01*
X162705733Y-65823896D01*
X162633315Y-65870071D01*
X162545151Y-65888401D01*
X162515213Y-65889297D01*
X162403114Y-65872744D01*
G37*
X162403114Y-65872744D02*
X162311536Y-65824591D01*
X162243951Y-65747095D01*
X162219943Y-65697273D01*
X162201262Y-65622467D01*
X162191699Y-65527948D01*
X162190792Y-65424790D01*
X162198079Y-65324065D01*
X162213097Y-65236847D01*
X162235385Y-65174209D01*
X162242235Y-65163421D01*
X162323368Y-65082895D01*
X162419734Y-65034664D01*
X162524299Y-65020550D01*
X162630032Y-65042371D01*
X162659457Y-65055453D01*
X162716759Y-65095769D01*
X162767050Y-65149225D01*
X162771803Y-65156005D01*
X162791122Y-65188679D01*
X162803892Y-65223606D01*
X162811436Y-65269586D01*
X162815076Y-65335416D01*
X162816135Y-65429895D01*
X162816154Y-65451077D01*
X162816106Y-65457818D01*
X162620769Y-65457818D01*
X162619632Y-65368651D01*
X162615159Y-65309480D01*
X162605754Y-65271259D01*
X162589824Y-65244947D01*
X162581692Y-65236154D01*
X162534942Y-65202739D01*
X162489553Y-65204263D01*
X162443660Y-65233248D01*
X162416288Y-65264191D01*
X162400077Y-65309357D01*
X162390974Y-65380580D01*
X162390349Y-65388886D01*
X162388796Y-65517963D01*
X162405035Y-65613828D01*
X162438848Y-65675893D01*
X162490016Y-65703568D01*
X162508280Y-65705077D01*
X162556240Y-65697487D01*
X162589047Y-65671192D01*
X162609105Y-65620905D01*
X162618822Y-65541336D01*
X162620769Y-65457818D01*
X162816106Y-65457818D01*
X162815426Y-65551751D01*
X162812371Y-65622094D01*
X162805678Y-65670837D01*
X162794040Y-65706712D01*
X162776147Y-65738452D01*
X162772192Y-65744352D01*
X162705733Y-65823896D01*
X162633315Y-65870071D01*
X162545151Y-65888401D01*
X162515213Y-65889297D01*
X162403114Y-65872744D01*
G36*
X160885746Y-65860255D02*
G01*
X160808714Y-65808433D01*
X160749184Y-65733588D01*
X160713622Y-65638346D01*
X160706429Y-65568244D01*
X160707246Y-65538991D01*
X160714086Y-65516593D01*
X160732888Y-65496526D01*
X160769592Y-65474267D01*
X160830138Y-65445291D01*
X160920466Y-65405073D01*
X160920923Y-65404871D01*
X161004067Y-65366790D01*
X161072247Y-65332975D01*
X161118495Y-65307067D01*
X161135842Y-65292705D01*
X161135846Y-65292589D01*
X161120557Y-65261315D01*
X161084804Y-65226843D01*
X161043758Y-65202010D01*
X161022963Y-65197077D01*
X160966230Y-65214138D01*
X160917373Y-65256867D01*
X160893535Y-65303845D01*
X160870603Y-65338478D01*
X160825682Y-65377919D01*
X160772877Y-65411991D01*
X160726290Y-65430520D01*
X160716548Y-65431538D01*
X160705582Y-65414785D01*
X160704921Y-65371961D01*
X160712980Y-65314219D01*
X160728173Y-65252711D01*
X160748914Y-65198591D01*
X160749962Y-65196490D01*
X160812379Y-65109340D01*
X160893274Y-65050061D01*
X160985144Y-65020966D01*
X161080487Y-65024366D01*
X161171802Y-65062572D01*
X161175862Y-65065259D01*
X161247694Y-65130358D01*
X161294927Y-65215295D01*
X161321066Y-65326979D01*
X161324574Y-65358357D01*
X161330787Y-65506464D01*
X161323339Y-65575532D01*
X161135846Y-65575532D01*
X161133410Y-65532448D01*
X161120086Y-65519874D01*
X161086868Y-65529281D01*
X161034506Y-65551517D01*
X160975976Y-65579390D01*
X160974521Y-65580128D01*
X160924911Y-65606223D01*
X160905000Y-65623637D01*
X160909910Y-65641893D01*
X160930584Y-65665880D01*
X160983181Y-65700594D01*
X161039823Y-65703144D01*
X161090631Y-65677881D01*
X161125724Y-65629153D01*
X161135846Y-65575532D01*
X161323339Y-65575532D01*
X161318008Y-65624964D01*
X161285222Y-65718945D01*
X161239579Y-65784785D01*
X161157198Y-65851319D01*
X161066454Y-65884324D01*
X160973815Y-65886427D01*
X160885746Y-65860255D01*
G37*
X160885746Y-65860255D02*
X160808714Y-65808433D01*
X160749184Y-65733588D01*
X160713622Y-65638346D01*
X160706429Y-65568244D01*
X160707246Y-65538991D01*
X160714086Y-65516593D01*
X160732888Y-65496526D01*
X160769592Y-65474267D01*
X160830138Y-65445291D01*
X160920466Y-65405073D01*
X160920923Y-65404871D01*
X161004067Y-65366790D01*
X161072247Y-65332975D01*
X161118495Y-65307067D01*
X161135842Y-65292705D01*
X161135846Y-65292589D01*
X161120557Y-65261315D01*
X161084804Y-65226843D01*
X161043758Y-65202010D01*
X161022963Y-65197077D01*
X160966230Y-65214138D01*
X160917373Y-65256867D01*
X160893535Y-65303845D01*
X160870603Y-65338478D01*
X160825682Y-65377919D01*
X160772877Y-65411991D01*
X160726290Y-65430520D01*
X160716548Y-65431538D01*
X160705582Y-65414785D01*
X160704921Y-65371961D01*
X160712980Y-65314219D01*
X160728173Y-65252711D01*
X160748914Y-65198591D01*
X160749962Y-65196490D01*
X160812379Y-65109340D01*
X160893274Y-65050061D01*
X160985144Y-65020966D01*
X161080487Y-65024366D01*
X161171802Y-65062572D01*
X161175862Y-65065259D01*
X161247694Y-65130358D01*
X161294927Y-65215295D01*
X161321066Y-65326979D01*
X161324574Y-65358357D01*
X161330787Y-65506464D01*
X161323339Y-65575532D01*
X161135846Y-65575532D01*
X161133410Y-65532448D01*
X161120086Y-65519874D01*
X161086868Y-65529281D01*
X161034506Y-65551517D01*
X160975976Y-65579390D01*
X160974521Y-65580128D01*
X160924911Y-65606223D01*
X160905000Y-65623637D01*
X160909910Y-65641893D01*
X160930584Y-65665880D01*
X160983181Y-65700594D01*
X161039823Y-65703144D01*
X161090631Y-65677881D01*
X161125724Y-65629153D01*
X161135846Y-65575532D01*
X161323339Y-65575532D01*
X161318008Y-65624964D01*
X161285222Y-65718945D01*
X161239579Y-65784785D01*
X161157198Y-65851319D01*
X161066454Y-65884324D01*
X160973815Y-65886427D01*
X160885746Y-65860255D01*
G36*
X159260154Y-65967880D02*
G01*
X159254428Y-65888020D01*
X159247851Y-65840961D01*
X159238738Y-65820434D01*
X159225402Y-65820171D01*
X159221077Y-65822622D01*
X159163556Y-65840364D01*
X159088732Y-65839328D01*
X159012661Y-65821090D01*
X158965082Y-65797495D01*
X158916298Y-65759802D01*
X158880636Y-65717145D01*
X158856155Y-65662943D01*
X158840913Y-65590616D01*
X158832970Y-65493581D01*
X158830384Y-65365258D01*
X158830338Y-65340642D01*
X158830308Y-65064130D01*
X158891839Y-65042680D01*
X158935541Y-65028088D01*
X158959518Y-65021294D01*
X158960223Y-65021231D01*
X158962585Y-65039655D01*
X158964594Y-65090474D01*
X158966099Y-65167007D01*
X158966947Y-65262570D01*
X158967077Y-65320671D01*
X158967349Y-65435229D01*
X158968748Y-65517333D01*
X158972151Y-65573607D01*
X158978433Y-65610674D01*
X158988471Y-65635156D01*
X159003139Y-65653675D01*
X159012298Y-65662594D01*
X159075211Y-65698534D01*
X159143864Y-65701225D01*
X159206152Y-65670830D01*
X159217671Y-65659856D01*
X159234567Y-65639221D01*
X159246286Y-65614744D01*
X159253767Y-65579353D01*
X159257946Y-65525974D01*
X159259763Y-65447534D01*
X159260154Y-65339383D01*
X159260154Y-65064130D01*
X159321685Y-65042680D01*
X159365387Y-65028088D01*
X159389364Y-65021294D01*
X159390070Y-65021231D01*
X159391874Y-65039931D01*
X159393500Y-65092678D01*
X159394883Y-65174443D01*
X159395958Y-65280195D01*
X159396660Y-65404906D01*
X159396923Y-65543545D01*
X159396923Y-66078194D01*
X159269923Y-66131764D01*
X159260154Y-65967880D01*
G37*
X159260154Y-65967880D02*
X159254428Y-65888020D01*
X159247851Y-65840961D01*
X159238738Y-65820434D01*
X159225402Y-65820171D01*
X159221077Y-65822622D01*
X159163556Y-65840364D01*
X159088732Y-65839328D01*
X159012661Y-65821090D01*
X158965082Y-65797495D01*
X158916298Y-65759802D01*
X158880636Y-65717145D01*
X158856155Y-65662943D01*
X158840913Y-65590616D01*
X158832970Y-65493581D01*
X158830384Y-65365258D01*
X158830338Y-65340642D01*
X158830308Y-65064130D01*
X158891839Y-65042680D01*
X158935541Y-65028088D01*
X158959518Y-65021294D01*
X158960223Y-65021231D01*
X158962585Y-65039655D01*
X158964594Y-65090474D01*
X158966099Y-65167007D01*
X158966947Y-65262570D01*
X158967077Y-65320671D01*
X158967349Y-65435229D01*
X158968748Y-65517333D01*
X158972151Y-65573607D01*
X158978433Y-65610674D01*
X158988471Y-65635156D01*
X159003139Y-65653675D01*
X159012298Y-65662594D01*
X159075211Y-65698534D01*
X159143864Y-65701225D01*
X159206152Y-65670830D01*
X159217671Y-65659856D01*
X159234567Y-65639221D01*
X159246286Y-65614744D01*
X159253767Y-65579353D01*
X159257946Y-65525974D01*
X159259763Y-65447534D01*
X159260154Y-65339383D01*
X159260154Y-65064130D01*
X159321685Y-65042680D01*
X159365387Y-65028088D01*
X159389364Y-65021294D01*
X159390070Y-65021231D01*
X159391874Y-65039931D01*
X159393500Y-65092678D01*
X159394883Y-65174443D01*
X159395958Y-65280195D01*
X159396660Y-65404906D01*
X159396923Y-65543545D01*
X159396923Y-66078194D01*
X159269923Y-66131764D01*
X159260154Y-65967880D01*
G36*
X158366499Y-65833697D02*
G01*
X158289940Y-65805267D01*
X158289064Y-65804721D01*
X158241715Y-65769873D01*
X158206759Y-65729148D01*
X158182175Y-65676075D01*
X158165938Y-65604186D01*
X158156025Y-65507008D01*
X158150414Y-65378072D01*
X158149923Y-65359702D01*
X158142859Y-65082713D01*
X158202305Y-65051972D01*
X158245319Y-65031198D01*
X158271290Y-65021354D01*
X158272491Y-65021231D01*
X158276986Y-65039394D01*
X158280556Y-65088388D01*
X158282752Y-65159969D01*
X158283231Y-65217932D01*
X158283242Y-65311830D01*
X158287534Y-65370797D01*
X158302497Y-65398921D01*
X158334518Y-65400294D01*
X158389986Y-65379002D01*
X158473731Y-65339864D01*
X158535311Y-65307357D01*
X158566983Y-65279155D01*
X158576294Y-65248418D01*
X158576308Y-65246896D01*
X158560943Y-65193946D01*
X158515453Y-65165340D01*
X158445834Y-65161197D01*
X158395687Y-65161916D01*
X158369246Y-65147473D01*
X158352757Y-65112782D01*
X158343267Y-65068584D01*
X158356943Y-65043507D01*
X158362093Y-65039918D01*
X158410575Y-65025504D01*
X158478469Y-65023463D01*
X158548388Y-65033017D01*
X158597932Y-65050478D01*
X158666430Y-65108636D01*
X158705366Y-65189592D01*
X158713077Y-65252840D01*
X158707193Y-65309889D01*
X158685899Y-65356458D01*
X158643735Y-65397819D01*
X158575241Y-65439245D01*
X158474956Y-65486007D01*
X158468846Y-65488650D01*
X158378510Y-65530383D01*
X158322765Y-65564609D01*
X158298871Y-65595365D01*
X158304087Y-65626689D01*
X158335672Y-65662617D01*
X158345117Y-65670884D01*
X158408383Y-65702942D01*
X158473936Y-65701593D01*
X158531028Y-65670162D01*
X158568907Y-65611976D01*
X158572426Y-65600554D01*
X158606700Y-65545163D01*
X158650191Y-65518482D01*
X158713077Y-65492040D01*
X158713077Y-65560452D01*
X158693948Y-65659890D01*
X158637169Y-65751098D01*
X158607622Y-65781611D01*
X158540458Y-65820772D01*
X158455044Y-65838500D01*
X158366499Y-65833697D01*
G37*
X158366499Y-65833697D02*
X158289940Y-65805267D01*
X158289064Y-65804721D01*
X158241715Y-65769873D01*
X158206759Y-65729148D01*
X158182175Y-65676075D01*
X158165938Y-65604186D01*
X158156025Y-65507008D01*
X158150414Y-65378072D01*
X158149923Y-65359702D01*
X158142859Y-65082713D01*
X158202305Y-65051972D01*
X158245319Y-65031198D01*
X158271290Y-65021354D01*
X158272491Y-65021231D01*
X158276986Y-65039394D01*
X158280556Y-65088388D01*
X158282752Y-65159969D01*
X158283231Y-65217932D01*
X158283242Y-65311830D01*
X158287534Y-65370797D01*
X158302497Y-65398921D01*
X158334518Y-65400294D01*
X158389986Y-65379002D01*
X158473731Y-65339864D01*
X158535311Y-65307357D01*
X158566983Y-65279155D01*
X158576294Y-65248418D01*
X158576308Y-65246896D01*
X158560943Y-65193946D01*
X158515453Y-65165340D01*
X158445834Y-65161197D01*
X158395687Y-65161916D01*
X158369246Y-65147473D01*
X158352757Y-65112782D01*
X158343267Y-65068584D01*
X158356943Y-65043507D01*
X158362093Y-65039918D01*
X158410575Y-65025504D01*
X158478469Y-65023463D01*
X158548388Y-65033017D01*
X158597932Y-65050478D01*
X158666430Y-65108636D01*
X158705366Y-65189592D01*
X158713077Y-65252840D01*
X158707193Y-65309889D01*
X158685899Y-65356458D01*
X158643735Y-65397819D01*
X158575241Y-65439245D01*
X158474956Y-65486007D01*
X158468846Y-65488650D01*
X158378510Y-65530383D01*
X158322765Y-65564609D01*
X158298871Y-65595365D01*
X158304087Y-65626689D01*
X158335672Y-65662617D01*
X158345117Y-65670884D01*
X158408383Y-65702942D01*
X158473936Y-65701593D01*
X158531028Y-65670162D01*
X158568907Y-65611976D01*
X158572426Y-65600554D01*
X158606700Y-65545163D01*
X158650191Y-65518482D01*
X158713077Y-65492040D01*
X158713077Y-65560452D01*
X158693948Y-65659890D01*
X158637169Y-65751098D01*
X158607622Y-65781611D01*
X158540458Y-65820772D01*
X158455044Y-65838500D01*
X158366499Y-65833697D01*
G36*
X157706638Y-65835330D02*
G01*
X157617883Y-65802579D01*
X157545978Y-65744650D01*
X157517856Y-65703872D01*
X157487198Y-65629046D01*
X157487835Y-65574942D01*
X157520013Y-65538554D01*
X157531919Y-65532367D01*
X157583325Y-65513075D01*
X157609578Y-65518018D01*
X157618470Y-65550413D01*
X157618923Y-65568308D01*
X157635203Y-65634141D01*
X157677635Y-65680193D01*
X157736612Y-65702436D01*
X157802525Y-65696839D01*
X157856105Y-65667771D01*
X157874202Y-65651190D01*
X157887029Y-65631075D01*
X157895694Y-65600668D01*
X157901304Y-65553212D01*
X157904965Y-65481950D01*
X157907785Y-65380125D01*
X157908516Y-65347885D01*
X157911180Y-65237590D01*
X157914208Y-65159964D01*
X157918750Y-65108604D01*
X157925954Y-65077110D01*
X157936967Y-65059080D01*
X157952940Y-65048112D01*
X157963166Y-65043267D01*
X158006594Y-65026699D01*
X158032158Y-65021231D01*
X158040605Y-65039493D01*
X158045761Y-65094704D01*
X158047654Y-65187501D01*
X158046311Y-65318522D01*
X158045893Y-65338731D01*
X158042942Y-65458267D01*
X158039452Y-65545551D01*
X158034486Y-65607409D01*
X158027107Y-65650664D01*
X158016376Y-65682140D01*
X158001355Y-65708661D01*
X157993498Y-65720025D01*
X157948447Y-65770308D01*
X157898060Y-65809419D01*
X157891892Y-65812833D01*
X157801542Y-65839788D01*
X157706638Y-65835330D01*
G37*
X157706638Y-65835330D02*
X157617883Y-65802579D01*
X157545978Y-65744650D01*
X157517856Y-65703872D01*
X157487198Y-65629046D01*
X157487835Y-65574942D01*
X157520013Y-65538554D01*
X157531919Y-65532367D01*
X157583325Y-65513075D01*
X157609578Y-65518018D01*
X157618470Y-65550413D01*
X157618923Y-65568308D01*
X157635203Y-65634141D01*
X157677635Y-65680193D01*
X157736612Y-65702436D01*
X157802525Y-65696839D01*
X157856105Y-65667771D01*
X157874202Y-65651190D01*
X157887029Y-65631075D01*
X157895694Y-65600668D01*
X157901304Y-65553212D01*
X157904965Y-65481950D01*
X157907785Y-65380125D01*
X157908516Y-65347885D01*
X157911180Y-65237590D01*
X157914208Y-65159964D01*
X157918750Y-65108604D01*
X157925954Y-65077110D01*
X157936967Y-65059080D01*
X157952940Y-65048112D01*
X157963166Y-65043267D01*
X158006594Y-65026699D01*
X158032158Y-65021231D01*
X158040605Y-65039493D01*
X158045761Y-65094704D01*
X158047654Y-65187501D01*
X158046311Y-65318522D01*
X158045893Y-65338731D01*
X158042942Y-65458267D01*
X158039452Y-65545551D01*
X158034486Y-65607409D01*
X158027107Y-65650664D01*
X158016376Y-65682140D01*
X158001355Y-65708661D01*
X157993498Y-65720025D01*
X157948447Y-65770308D01*
X157898060Y-65809419D01*
X157891892Y-65812833D01*
X157801542Y-65839788D01*
X157706638Y-65835330D01*
G36*
X156817919Y-65679711D02*
G01*
X156818167Y-65533680D01*
X156819128Y-65421345D01*
X156821206Y-65337322D01*
X156824807Y-65276231D01*
X156830335Y-65232691D01*
X156838196Y-65201321D01*
X156848793Y-65176738D01*
X156856818Y-65162706D01*
X156923272Y-65086612D01*
X157007530Y-65038916D01*
X157100751Y-65021801D01*
X157194100Y-65037454D01*
X157249688Y-65065582D01*
X157308043Y-65114240D01*
X157347814Y-65173667D01*
X157371810Y-65251493D01*
X157382839Y-65355348D01*
X157384401Y-65431538D01*
X157384191Y-65437014D01*
X157247692Y-65437014D01*
X157246859Y-65349645D01*
X157243039Y-65291808D01*
X157234254Y-65253971D01*
X157218526Y-65226602D01*
X157199734Y-65205958D01*
X157136625Y-65166110D01*
X157068863Y-65162705D01*
X157004821Y-65195975D01*
X156999836Y-65200483D01*
X156978561Y-65223933D01*
X156965221Y-65251834D01*
X156957999Y-65293359D01*
X156955077Y-65357684D01*
X156954615Y-65428800D01*
X156955617Y-65518142D01*
X156959762Y-65577742D01*
X156968764Y-65616911D01*
X156984333Y-65644960D01*
X156997098Y-65659856D01*
X157056400Y-65697425D01*
X157124699Y-65701943D01*
X157189890Y-65673247D01*
X157202472Y-65662594D01*
X157223889Y-65638937D01*
X157237256Y-65610749D01*
X157244434Y-65568755D01*
X157247281Y-65503681D01*
X157247692Y-65437014D01*
X157384191Y-65437014D01*
X157379678Y-65554235D01*
X157363638Y-65646423D01*
X157333472Y-65715731D01*
X157286371Y-65769789D01*
X157249688Y-65797495D01*
X157183010Y-65827428D01*
X157105728Y-65841322D01*
X157033890Y-65837603D01*
X156993692Y-65822600D01*
X156977918Y-65818330D01*
X156967450Y-65834250D01*
X156960144Y-65876911D01*
X156954615Y-65941894D01*
X156948563Y-66014268D01*
X156940156Y-66057813D01*
X156924859Y-66082713D01*
X156898136Y-66099155D01*
X156881346Y-66106436D01*
X156817846Y-66133037D01*
X156817919Y-65679711D01*
G37*
X156817919Y-65679711D02*
X156818167Y-65533680D01*
X156819128Y-65421345D01*
X156821206Y-65337322D01*
X156824807Y-65276231D01*
X156830335Y-65232691D01*
X156838196Y-65201321D01*
X156848793Y-65176738D01*
X156856818Y-65162706D01*
X156923272Y-65086612D01*
X157007530Y-65038916D01*
X157100751Y-65021801D01*
X157194100Y-65037454D01*
X157249688Y-65065582D01*
X157308043Y-65114240D01*
X157347814Y-65173667D01*
X157371810Y-65251493D01*
X157382839Y-65355348D01*
X157384401Y-65431538D01*
X157384191Y-65437014D01*
X157247692Y-65437014D01*
X157246859Y-65349645D01*
X157243039Y-65291808D01*
X157234254Y-65253971D01*
X157218526Y-65226602D01*
X157199734Y-65205958D01*
X157136625Y-65166110D01*
X157068863Y-65162705D01*
X157004821Y-65195975D01*
X156999836Y-65200483D01*
X156978561Y-65223933D01*
X156965221Y-65251834D01*
X156957999Y-65293359D01*
X156955077Y-65357684D01*
X156954615Y-65428800D01*
X156955617Y-65518142D01*
X156959762Y-65577742D01*
X156968764Y-65616911D01*
X156984333Y-65644960D01*
X156997098Y-65659856D01*
X157056400Y-65697425D01*
X157124699Y-65701943D01*
X157189890Y-65673247D01*
X157202472Y-65662594D01*
X157223889Y-65638937D01*
X157237256Y-65610749D01*
X157244434Y-65568755D01*
X157247281Y-65503681D01*
X157247692Y-65437014D01*
X157384191Y-65437014D01*
X157379678Y-65554235D01*
X157363638Y-65646423D01*
X157333472Y-65715731D01*
X157286371Y-65769789D01*
X157249688Y-65797495D01*
X157183010Y-65827428D01*
X157105728Y-65841322D01*
X157033890Y-65837603D01*
X156993692Y-65822600D01*
X156977918Y-65818330D01*
X156967450Y-65834250D01*
X156960144Y-65876911D01*
X156954615Y-65941894D01*
X156948563Y-66014268D01*
X156940156Y-66057813D01*
X156924859Y-66082713D01*
X156898136Y-66099155D01*
X156881346Y-66106436D01*
X156817846Y-66133037D01*
X156817919Y-65679711D01*
G36*
X156024071Y-65823338D02*
G01*
X156021089Y-65771932D01*
X156018753Y-65693808D01*
X156017251Y-65595143D01*
X156016769Y-65491657D01*
X156016769Y-65141467D01*
X156078599Y-65079637D01*
X156121207Y-65041538D01*
X156158610Y-65026105D01*
X156209730Y-65027082D01*
X156230022Y-65029567D01*
X156293446Y-65036800D01*
X156345905Y-65040945D01*
X156358692Y-65041328D01*
X156401801Y-65038824D01*
X156463456Y-65032538D01*
X156487362Y-65029567D01*
X156546078Y-65024972D01*
X156585536Y-65034954D01*
X156624662Y-65065772D01*
X156638785Y-65079637D01*
X156700615Y-65141467D01*
X156700615Y-65796497D01*
X156650850Y-65819171D01*
X156607998Y-65835966D01*
X156582927Y-65841846D01*
X156576499Y-65823264D01*
X156570491Y-65771345D01*
X156565303Y-65691828D01*
X156561336Y-65590454D01*
X156559423Y-65504808D01*
X156554077Y-65167769D01*
X156507440Y-65161175D01*
X156465024Y-65165786D01*
X156444240Y-65180713D01*
X156438430Y-65208623D01*
X156433470Y-65268075D01*
X156429754Y-65351534D01*
X156427676Y-65451468D01*
X156427376Y-65502896D01*
X156427077Y-65798946D01*
X156365546Y-65820396D01*
X156321996Y-65834980D01*
X156298306Y-65841781D01*
X156297623Y-65841846D01*
X156295246Y-65823358D01*
X156292634Y-65772094D01*
X156290005Y-65694351D01*
X156287579Y-65596426D01*
X156285885Y-65504808D01*
X156280539Y-65167769D01*
X156163308Y-65167769D01*
X156157928Y-65475254D01*
X156152549Y-65782739D01*
X156095399Y-65812293D01*
X156053203Y-65832587D01*
X156028230Y-65841796D01*
X156027509Y-65841846D01*
X156024071Y-65823338D01*
G37*
X156024071Y-65823338D02*
X156021089Y-65771932D01*
X156018753Y-65693808D01*
X156017251Y-65595143D01*
X156016769Y-65491657D01*
X156016769Y-65141467D01*
X156078599Y-65079637D01*
X156121207Y-65041538D01*
X156158610Y-65026105D01*
X156209730Y-65027082D01*
X156230022Y-65029567D01*
X156293446Y-65036800D01*
X156345905Y-65040945D01*
X156358692Y-65041328D01*
X156401801Y-65038824D01*
X156463456Y-65032538D01*
X156487362Y-65029567D01*
X156546078Y-65024972D01*
X156585536Y-65034954D01*
X156624662Y-65065772D01*
X156638785Y-65079637D01*
X156700615Y-65141467D01*
X156700615Y-65796497D01*
X156650850Y-65819171D01*
X156607998Y-65835966D01*
X156582927Y-65841846D01*
X156576499Y-65823264D01*
X156570491Y-65771345D01*
X156565303Y-65691828D01*
X156561336Y-65590454D01*
X156559423Y-65504808D01*
X156554077Y-65167769D01*
X156507440Y-65161175D01*
X156465024Y-65165786D01*
X156444240Y-65180713D01*
X156438430Y-65208623D01*
X156433470Y-65268075D01*
X156429754Y-65351534D01*
X156427676Y-65451468D01*
X156427376Y-65502896D01*
X156427077Y-65798946D01*
X156365546Y-65820396D01*
X156321996Y-65834980D01*
X156298306Y-65841781D01*
X156297623Y-65841846D01*
X156295246Y-65823358D01*
X156292634Y-65772094D01*
X156290005Y-65694351D01*
X156287579Y-65596426D01*
X156285885Y-65504808D01*
X156280539Y-65167769D01*
X156163308Y-65167769D01*
X156157928Y-65475254D01*
X156152549Y-65782739D01*
X156095399Y-65812293D01*
X156053203Y-65832587D01*
X156028230Y-65841796D01*
X156027509Y-65841846D01*
X156024071Y-65823338D01*
G36*
X155532667Y-65826472D02*
G01*
X155476410Y-65800883D01*
X155432253Y-65769876D01*
X155399899Y-65735205D01*
X155377562Y-65690480D01*
X155363454Y-65629308D01*
X155355789Y-65545299D01*
X155352780Y-65432060D01*
X155352462Y-65357491D01*
X155352462Y-65066580D01*
X155402227Y-65043905D01*
X155441424Y-65027333D01*
X155460843Y-65021231D01*
X155464558Y-65039390D01*
X155467505Y-65088352D01*
X155469309Y-65159847D01*
X155469692Y-65216615D01*
X155471339Y-65298629D01*
X155475778Y-65363691D01*
X155482260Y-65403533D01*
X155487410Y-65412000D01*
X155522023Y-65403354D01*
X155576360Y-65381177D01*
X155639278Y-65351114D01*
X155699632Y-65318808D01*
X155746279Y-65289902D01*
X155768074Y-65270039D01*
X155768161Y-65269825D01*
X155766286Y-65233065D01*
X155749475Y-65197974D01*
X155719961Y-65169472D01*
X155676884Y-65159939D01*
X155640068Y-65161050D01*
X155587926Y-65161867D01*
X155560556Y-65149651D01*
X155544118Y-65117376D01*
X155542045Y-65111290D01*
X155534919Y-65065261D01*
X155553976Y-65037313D01*
X155603647Y-65023993D01*
X155657303Y-65021530D01*
X155753858Y-65039790D01*
X155803841Y-65065869D01*
X155865571Y-65127132D01*
X155898310Y-65202330D01*
X155901247Y-65281789D01*
X155873576Y-65355833D01*
X155831953Y-65402231D01*
X155790396Y-65428207D01*
X155725078Y-65461093D01*
X155648962Y-65494443D01*
X155636274Y-65499539D01*
X155552667Y-65536435D01*
X155504470Y-65568954D01*
X155488970Y-65601282D01*
X155503450Y-65637606D01*
X155528308Y-65666000D01*
X155587061Y-65700961D01*
X155651707Y-65703583D01*
X155710992Y-65676642D01*
X155753661Y-65622912D01*
X155759261Y-65609050D01*
X155791867Y-65558064D01*
X155839470Y-65520213D01*
X155899539Y-65489150D01*
X155899539Y-65577232D01*
X155896003Y-65631049D01*
X155880844Y-65673466D01*
X155847232Y-65718721D01*
X155814965Y-65753580D01*
X155764791Y-65802938D01*
X155725807Y-65829453D01*
X155683936Y-65840089D01*
X155636540Y-65841846D01*
X155532667Y-65826472D01*
G37*
X155532667Y-65826472D02*
X155476410Y-65800883D01*
X155432253Y-65769876D01*
X155399899Y-65735205D01*
X155377562Y-65690480D01*
X155363454Y-65629308D01*
X155355789Y-65545299D01*
X155352780Y-65432060D01*
X155352462Y-65357491D01*
X155352462Y-65066580D01*
X155402227Y-65043905D01*
X155441424Y-65027333D01*
X155460843Y-65021231D01*
X155464558Y-65039390D01*
X155467505Y-65088352D01*
X155469309Y-65159847D01*
X155469692Y-65216615D01*
X155471339Y-65298629D01*
X155475778Y-65363691D01*
X155482260Y-65403533D01*
X155487410Y-65412000D01*
X155522023Y-65403354D01*
X155576360Y-65381177D01*
X155639278Y-65351114D01*
X155699632Y-65318808D01*
X155746279Y-65289902D01*
X155768074Y-65270039D01*
X155768161Y-65269825D01*
X155766286Y-65233065D01*
X155749475Y-65197974D01*
X155719961Y-65169472D01*
X155676884Y-65159939D01*
X155640068Y-65161050D01*
X155587926Y-65161867D01*
X155560556Y-65149651D01*
X155544118Y-65117376D01*
X155542045Y-65111290D01*
X155534919Y-65065261D01*
X155553976Y-65037313D01*
X155603647Y-65023993D01*
X155657303Y-65021530D01*
X155753858Y-65039790D01*
X155803841Y-65065869D01*
X155865571Y-65127132D01*
X155898310Y-65202330D01*
X155901247Y-65281789D01*
X155873576Y-65355833D01*
X155831953Y-65402231D01*
X155790396Y-65428207D01*
X155725078Y-65461093D01*
X155648962Y-65494443D01*
X155636274Y-65499539D01*
X155552667Y-65536435D01*
X155504470Y-65568954D01*
X155488970Y-65601282D01*
X155503450Y-65637606D01*
X155528308Y-65666000D01*
X155587061Y-65700961D01*
X155651707Y-65703583D01*
X155710992Y-65676642D01*
X155753661Y-65622912D01*
X155759261Y-65609050D01*
X155791867Y-65558064D01*
X155839470Y-65520213D01*
X155899539Y-65489150D01*
X155899539Y-65577232D01*
X155896003Y-65631049D01*
X155880844Y-65673466D01*
X155847232Y-65718721D01*
X155814965Y-65753580D01*
X155764791Y-65802938D01*
X155725807Y-65829453D01*
X155683936Y-65840089D01*
X155636540Y-65841846D01*
X155532667Y-65826472D01*
G36*
X154849193Y-65823218D02*
G01*
X154825839Y-65813012D01*
X154770098Y-65768866D01*
X154722431Y-65705033D01*
X154692952Y-65636913D01*
X154688154Y-65603330D01*
X154704240Y-65556444D01*
X154739525Y-65531635D01*
X154777356Y-65516613D01*
X154794679Y-65513845D01*
X154803114Y-65533934D01*
X154819770Y-65577649D01*
X154827077Y-65597402D01*
X154868052Y-65665729D01*
X154927378Y-65699809D01*
X155003448Y-65698761D01*
X155009082Y-65697419D01*
X155049695Y-65678164D01*
X155079552Y-65640625D01*
X155099945Y-65580191D01*
X155112164Y-65492249D01*
X155117500Y-65372187D01*
X155118000Y-65308302D01*
X155118248Y-65207597D01*
X155119874Y-65138946D01*
X155124199Y-65095327D01*
X155132546Y-65069718D01*
X155146235Y-65055097D01*
X155166589Y-65044442D01*
X155167766Y-65043905D01*
X155206962Y-65027333D01*
X155226381Y-65021231D01*
X155229365Y-65039681D01*
X155231919Y-65090677D01*
X155233860Y-65167692D01*
X155235003Y-65264195D01*
X155235231Y-65334816D01*
X155234068Y-65471475D01*
X155229521Y-65575149D01*
X155220001Y-65651892D01*
X155203919Y-65707754D01*
X155179687Y-65748788D01*
X155145714Y-65781046D01*
X155112167Y-65803560D01*
X155031501Y-65833524D01*
X154937619Y-65840282D01*
X154849193Y-65823218D01*
G37*
X154849193Y-65823218D02*
X154825839Y-65813012D01*
X154770098Y-65768866D01*
X154722431Y-65705033D01*
X154692952Y-65636913D01*
X154688154Y-65603330D01*
X154704240Y-65556444D01*
X154739525Y-65531635D01*
X154777356Y-65516613D01*
X154794679Y-65513845D01*
X154803114Y-65533934D01*
X154819770Y-65577649D01*
X154827077Y-65597402D01*
X154868052Y-65665729D01*
X154927378Y-65699809D01*
X155003448Y-65698761D01*
X155009082Y-65697419D01*
X155049695Y-65678164D01*
X155079552Y-65640625D01*
X155099945Y-65580191D01*
X155112164Y-65492249D01*
X155117500Y-65372187D01*
X155118000Y-65308302D01*
X155118248Y-65207597D01*
X155119874Y-65138946D01*
X155124199Y-65095327D01*
X155132546Y-65069718D01*
X155146235Y-65055097D01*
X155166589Y-65044442D01*
X155167766Y-65043905D01*
X155206962Y-65027333D01*
X155226381Y-65021231D01*
X155229365Y-65039681D01*
X155231919Y-65090677D01*
X155233860Y-65167692D01*
X155235003Y-65264195D01*
X155235231Y-65334816D01*
X155234068Y-65471475D01*
X155229521Y-65575149D01*
X155220001Y-65651892D01*
X155203919Y-65707754D01*
X155179687Y-65748788D01*
X155145714Y-65781046D01*
X155112167Y-65803560D01*
X155031501Y-65833524D01*
X154937619Y-65840282D01*
X154849193Y-65823218D01*
G36*
X154174776Y-65812162D02*
G01*
X154097472Y-65761639D01*
X154060186Y-65716410D01*
X154030647Y-65634337D01*
X154028301Y-65569393D01*
X154033615Y-65482555D01*
X154233885Y-65394897D01*
X154331261Y-65350113D01*
X154394887Y-65314087D01*
X154427971Y-65282883D01*
X154433720Y-65252564D01*
X154415342Y-65219195D01*
X154395077Y-65197077D01*
X154336111Y-65161607D01*
X154271976Y-65159121D01*
X154213074Y-65186765D01*
X154169803Y-65241680D01*
X154162064Y-65261072D01*
X154124994Y-65321636D01*
X154082346Y-65347448D01*
X154023846Y-65369529D01*
X154023846Y-65285816D01*
X154029018Y-65228850D01*
X154049277Y-65180811D01*
X154091738Y-65125654D01*
X154098049Y-65118486D01*
X154145280Y-65069415D01*
X154185879Y-65043080D01*
X154236672Y-65030965D01*
X154278780Y-65026997D01*
X154354098Y-65026009D01*
X154407714Y-65038534D01*
X154441162Y-65057131D01*
X154493732Y-65098025D01*
X154530121Y-65142252D01*
X154553150Y-65197874D01*
X154565641Y-65272953D01*
X154570413Y-65375551D01*
X154570794Y-65427624D01*
X154569499Y-65490052D01*
X154451529Y-65490052D01*
X154450161Y-65456562D01*
X154446751Y-65451077D01*
X154424247Y-65458528D01*
X154375818Y-65478247D01*
X154311092Y-65506282D01*
X154297557Y-65512308D01*
X154215756Y-65553904D01*
X154170688Y-65590462D01*
X154160783Y-65624704D01*
X154184474Y-65659352D01*
X154204040Y-65674661D01*
X154274640Y-65705279D01*
X154340720Y-65700220D01*
X154396041Y-65662849D01*
X154434364Y-65596527D01*
X154446651Y-65543884D01*
X154451529Y-65490052D01*
X154569499Y-65490052D01*
X154568270Y-65549280D01*
X154558968Y-65639290D01*
X154540540Y-65704833D01*
X154510640Y-65753088D01*
X154466920Y-65791233D01*
X154447859Y-65803560D01*
X154361274Y-65835664D01*
X154266478Y-65837684D01*
X154174776Y-65812162D01*
G37*
X154174776Y-65812162D02*
X154097472Y-65761639D01*
X154060186Y-65716410D01*
X154030647Y-65634337D01*
X154028301Y-65569393D01*
X154033615Y-65482555D01*
X154233885Y-65394897D01*
X154331261Y-65350113D01*
X154394887Y-65314087D01*
X154427971Y-65282883D01*
X154433720Y-65252564D01*
X154415342Y-65219195D01*
X154395077Y-65197077D01*
X154336111Y-65161607D01*
X154271976Y-65159121D01*
X154213074Y-65186765D01*
X154169803Y-65241680D01*
X154162064Y-65261072D01*
X154124994Y-65321636D01*
X154082346Y-65347448D01*
X154023846Y-65369529D01*
X154023846Y-65285816D01*
X154029018Y-65228850D01*
X154049277Y-65180811D01*
X154091738Y-65125654D01*
X154098049Y-65118486D01*
X154145280Y-65069415D01*
X154185879Y-65043080D01*
X154236672Y-65030965D01*
X154278780Y-65026997D01*
X154354098Y-65026009D01*
X154407714Y-65038534D01*
X154441162Y-65057131D01*
X154493732Y-65098025D01*
X154530121Y-65142252D01*
X154553150Y-65197874D01*
X154565641Y-65272953D01*
X154570413Y-65375551D01*
X154570794Y-65427624D01*
X154569499Y-65490052D01*
X154451529Y-65490052D01*
X154450161Y-65456562D01*
X154446751Y-65451077D01*
X154424247Y-65458528D01*
X154375818Y-65478247D01*
X154311092Y-65506282D01*
X154297557Y-65512308D01*
X154215756Y-65553904D01*
X154170688Y-65590462D01*
X154160783Y-65624704D01*
X154184474Y-65659352D01*
X154204040Y-65674661D01*
X154274640Y-65705279D01*
X154340720Y-65700220D01*
X154396041Y-65662849D01*
X154434364Y-65596527D01*
X154446651Y-65543884D01*
X154451529Y-65490052D01*
X154569499Y-65490052D01*
X154568270Y-65549280D01*
X154558968Y-65639290D01*
X154540540Y-65704833D01*
X154510640Y-65753088D01*
X154466920Y-65791233D01*
X154447859Y-65803560D01*
X154361274Y-65835664D01*
X154266478Y-65837684D01*
X154174776Y-65812162D01*
G36*
X158280122Y-72172224D02*
G01*
X158174388Y-72171645D01*
X158097868Y-72170078D01*
X158045628Y-72167028D01*
X158012737Y-72162004D01*
X157994263Y-72154511D01*
X157985273Y-72144056D01*
X157980837Y-72130147D01*
X157980406Y-72128346D01*
X157973667Y-72095855D01*
X157961192Y-72031748D01*
X157944281Y-71942849D01*
X157924229Y-71835981D01*
X157902336Y-71717967D01*
X157901571Y-71713822D01*
X157879641Y-71598169D01*
X157859123Y-71495986D01*
X157841341Y-71413402D01*
X157827619Y-71356544D01*
X157819282Y-71331542D01*
X157818884Y-71331099D01*
X157794323Y-71318890D01*
X157743685Y-71298544D01*
X157677905Y-71274455D01*
X157677539Y-71274326D01*
X157594683Y-71243182D01*
X157497000Y-71203509D01*
X157404923Y-71163619D01*
X157400566Y-71161647D01*
X157250593Y-71093580D01*
X156918502Y-71320361D01*
X156816626Y-71389496D01*
X156724343Y-71451303D01*
X156646997Y-71502267D01*
X156589936Y-71538873D01*
X156558505Y-71557606D01*
X156555521Y-71558996D01*
X156532679Y-71552810D01*
X156490018Y-71522965D01*
X156425872Y-71468053D01*
X156338579Y-71386666D01*
X156249465Y-71300078D01*
X156163559Y-71214753D01*
X156086673Y-71136892D01*
X156023436Y-71071303D01*
X155978477Y-71022795D01*
X155956424Y-70996175D01*
X155955604Y-70994805D01*
X155953166Y-70976537D01*
X155962350Y-70946705D01*
X155985426Y-70901279D01*
X156024663Y-70836230D01*
X156082330Y-70747530D01*
X156159205Y-70633343D01*
X156227430Y-70532838D01*
X156288418Y-70442697D01*
X156338644Y-70368151D01*
X156374584Y-70314435D01*
X156392713Y-70286782D01*
X156393854Y-70284905D01*
X156391641Y-70258410D01*
X156374862Y-70206914D01*
X156346858Y-70140149D01*
X156336878Y-70118828D01*
X156293328Y-70023841D01*
X156246866Y-69916063D01*
X156209123Y-69822808D01*
X156181927Y-69753594D01*
X156160325Y-69700994D01*
X156147842Y-69673503D01*
X156146291Y-69671384D01*
X156123332Y-69667876D01*
X156069214Y-69658262D01*
X155991132Y-69643911D01*
X155896281Y-69626193D01*
X155791857Y-69606475D01*
X155685056Y-69586126D01*
X155583074Y-69566514D01*
X155493106Y-69549009D01*
X155422347Y-69534978D01*
X155377994Y-69525791D01*
X155367115Y-69523193D01*
X155355878Y-69516782D01*
X155347395Y-69502303D01*
X155341286Y-69474867D01*
X155337168Y-69429589D01*
X155334659Y-69361580D01*
X155333379Y-69265953D01*
X155332946Y-69137820D01*
X155332923Y-69085299D01*
X155332923Y-68658155D01*
X155435500Y-68637909D01*
X155492569Y-68626930D01*
X155577731Y-68610905D01*
X155680628Y-68591767D01*
X155790904Y-68571449D01*
X155821385Y-68565868D01*
X155923145Y-68546083D01*
X156011795Y-68526627D01*
X156079892Y-68509303D01*
X156119996Y-68495912D01*
X156126677Y-68491921D01*
X156143081Y-68463658D01*
X156166601Y-68408891D01*
X156192684Y-68338412D01*
X156197858Y-68323231D01*
X156232044Y-68229104D01*
X156274477Y-68122899D01*
X156316003Y-68027527D01*
X156316208Y-68027084D01*
X156385360Y-67877475D01*
X155930488Y-67208383D01*
X156222500Y-66915884D01*
X156310820Y-66828830D01*
X156391375Y-66752091D01*
X156459640Y-66689763D01*
X156511092Y-66645944D01*
X156541206Y-66624730D01*
X156545526Y-66623384D01*
X156570889Y-66633984D01*
X156622642Y-66663453D01*
X156695132Y-66708295D01*
X156782706Y-66765016D01*
X156877388Y-66828538D01*
X156973484Y-66893332D01*
X157059163Y-66949713D01*
X157128984Y-66994212D01*
X157177506Y-67023361D01*
X157199218Y-67033692D01*
X157225707Y-67024950D01*
X157275938Y-67001913D01*
X157339549Y-66969369D01*
X157346292Y-66965751D01*
X157431954Y-66922790D01*
X157490694Y-66901721D01*
X157527228Y-66901497D01*
X157546269Y-66921072D01*
X157546380Y-66921346D01*
X157555898Y-66944528D01*
X157578597Y-66999559D01*
X157612718Y-67082178D01*
X157656500Y-67188128D01*
X157708184Y-67313148D01*
X157766008Y-67452980D01*
X157822009Y-67588363D01*
X157883553Y-67737766D01*
X157940061Y-67876168D01*
X157989839Y-67999327D01*
X158031194Y-68102998D01*
X158062432Y-68182941D01*
X158081859Y-68234912D01*
X158087846Y-68254308D01*
X158072832Y-68276557D01*
X158033561Y-68312018D01*
X157981193Y-68351113D01*
X157832059Y-68474755D01*
X157715489Y-68616478D01*
X157632882Y-68773296D01*
X157585634Y-68942225D01*
X157575143Y-69120278D01*
X157582769Y-69202461D01*
X157624318Y-69372969D01*
X157695877Y-69523541D01*
X157793005Y-69652691D01*
X157911266Y-69758936D01*
X158046220Y-69840790D01*
X158193429Y-69896768D01*
X158348456Y-69925385D01*
X158506861Y-69925156D01*
X158664206Y-69894595D01*
X158816054Y-69832218D01*
X158957965Y-69736540D01*
X159017197Y-69682428D01*
X159130797Y-69543480D01*
X159209894Y-69391639D01*
X159255014Y-69231333D01*
X159266684Y-69066988D01*
X159245431Y-68903029D01*
X159191780Y-68743882D01*
X159106260Y-68593975D01*
X158989395Y-68457733D01*
X158858807Y-68351113D01*
X158804412Y-68310358D01*
X158765986Y-68275282D01*
X158752154Y-68254274D01*
X158759397Y-68231365D01*
X158779995Y-68176635D01*
X158812254Y-68094328D01*
X158854479Y-67988685D01*
X158904977Y-67863950D01*
X158962052Y-67724364D01*
X159018146Y-67588330D01*
X159080033Y-67438799D01*
X159137356Y-67300233D01*
X159188356Y-67176893D01*
X159231273Y-67073036D01*
X159264347Y-66992920D01*
X159285819Y-66940805D01*
X159293775Y-66921346D01*
X159312571Y-66901577D01*
X159348926Y-66901635D01*
X159407521Y-66922559D01*
X159493032Y-66965387D01*
X159493708Y-66965751D01*
X159558093Y-66998988D01*
X159610139Y-67023198D01*
X159639488Y-67033596D01*
X159640783Y-67033692D01*
X159662876Y-67023145D01*
X159711652Y-66993816D01*
X159781669Y-66949173D01*
X159867486Y-66892686D01*
X159962612Y-66828538D01*
X160059460Y-66763589D01*
X160146747Y-66707104D01*
X160218819Y-66662579D01*
X160270023Y-66633510D01*
X160294474Y-66623384D01*
X160316990Y-66636693D01*
X160362258Y-66673888D01*
X160425756Y-66730872D01*
X160502961Y-66803551D01*
X160589349Y-66887829D01*
X160617601Y-66915984D01*
X160909713Y-67208584D01*
X160687369Y-67534896D01*
X160619798Y-67635103D01*
X160560493Y-67725037D01*
X160512783Y-67799490D01*
X160479993Y-67853249D01*
X160465452Y-67881106D01*
X160465026Y-67883088D01*
X160472692Y-67909345D01*
X160493311Y-67962163D01*
X160523315Y-68032690D01*
X160544375Y-68079907D01*
X160583752Y-68170306D01*
X160620835Y-68261634D01*
X160649585Y-68338800D01*
X160657395Y-68362308D01*
X160679583Y-68425084D01*
X160701273Y-68473589D01*
X160713187Y-68491921D01*
X160739477Y-68503141D01*
X160796858Y-68519046D01*
X160877882Y-68537833D01*
X160975105Y-68557701D01*
X161018615Y-68565868D01*
X161129104Y-68586171D01*
X161235084Y-68605830D01*
X161326199Y-68622912D01*
X161392092Y-68635482D01*
X161404500Y-68637909D01*
X161507077Y-68658155D01*
X161507077Y-69085299D01*
X161506847Y-69225754D01*
X161505901Y-69332021D01*
X161503859Y-69408987D01*
X161500338Y-69461540D01*
X161494957Y-69494567D01*
X161487334Y-69512955D01*
X161477088Y-69521592D01*
X161472885Y-69523193D01*
X161447530Y-69528873D01*
X161391516Y-69540205D01*
X161312036Y-69555821D01*
X161216288Y-69574353D01*
X161111467Y-69594431D01*
X161004768Y-69614688D01*
X160903387Y-69633754D01*
X160814521Y-69650261D01*
X160745363Y-69662841D01*
X160703111Y-69670125D01*
X160693710Y-69671384D01*
X160685193Y-69688237D01*
X160666340Y-69733130D01*
X160640676Y-69797570D01*
X160630877Y-69822808D01*
X160591352Y-69920314D01*
X160544808Y-70028041D01*
X160503123Y-70118828D01*
X160472450Y-70188247D01*
X160452044Y-70245290D01*
X160445232Y-70280223D01*
X160446318Y-70284905D01*
X160460715Y-70307009D01*
X160493588Y-70356169D01*
X160541410Y-70427152D01*
X160600652Y-70514722D01*
X160667785Y-70613643D01*
X160681059Y-70633170D01*
X160758954Y-70748860D01*
X160816213Y-70836956D01*
X160855119Y-70901514D01*
X160877956Y-70946589D01*
X160887006Y-70976237D01*
X160884552Y-70994515D01*
X160884489Y-70994631D01*
X160865173Y-71018639D01*
X160822449Y-71065053D01*
X160760949Y-71129063D01*
X160685302Y-71205855D01*
X160600139Y-71290618D01*
X160590535Y-71300078D01*
X160483210Y-71404011D01*
X160400385Y-71480325D01*
X160340395Y-71530429D01*
X160301577Y-71555730D01*
X160284480Y-71558996D01*
X160259527Y-71544750D01*
X160207745Y-71511844D01*
X160134480Y-71463792D01*
X160045080Y-71404110D01*
X159944889Y-71336312D01*
X159921499Y-71320361D01*
X159589407Y-71093580D01*
X159439435Y-71161647D01*
X159348230Y-71201315D01*
X159250331Y-71241209D01*
X159166169Y-71273017D01*
X159162462Y-71274326D01*
X159096631Y-71298424D01*
X159045884Y-71318800D01*
X159021158Y-71331064D01*
X159021116Y-71331099D01*
X159013271Y-71353266D01*
X158999934Y-71407783D01*
X158982430Y-71488520D01*
X158962083Y-71589350D01*
X158940218Y-71704144D01*
X158938429Y-71713822D01*
X158916496Y-71832096D01*
X158896360Y-71939458D01*
X158879320Y-72029083D01*
X158866672Y-72094149D01*
X158859716Y-72127832D01*
X158859594Y-72128346D01*
X158855361Y-72142675D01*
X158847129Y-72153493D01*
X158829967Y-72161294D01*
X158798942Y-72166571D01*
X158749122Y-72169818D01*
X158675576Y-72171528D01*
X158573371Y-72172193D01*
X158437575Y-72172307D01*
X158420000Y-72172308D01*
X158280122Y-72172224D01*
G37*
X158280122Y-72172224D02*
X158174388Y-72171645D01*
X158097868Y-72170078D01*
X158045628Y-72167028D01*
X158012737Y-72162004D01*
X157994263Y-72154511D01*
X157985273Y-72144056D01*
X157980837Y-72130147D01*
X157980406Y-72128346D01*
X157973667Y-72095855D01*
X157961192Y-72031748D01*
X157944281Y-71942849D01*
X157924229Y-71835981D01*
X157902336Y-71717967D01*
X157901571Y-71713822D01*
X157879641Y-71598169D01*
X157859123Y-71495986D01*
X157841341Y-71413402D01*
X157827619Y-71356544D01*
X157819282Y-71331542D01*
X157818884Y-71331099D01*
X157794323Y-71318890D01*
X157743685Y-71298544D01*
X157677905Y-71274455D01*
X157677539Y-71274326D01*
X157594683Y-71243182D01*
X157497000Y-71203509D01*
X157404923Y-71163619D01*
X157400566Y-71161647D01*
X157250593Y-71093580D01*
X156918502Y-71320361D01*
X156816626Y-71389496D01*
X156724343Y-71451303D01*
X156646997Y-71502267D01*
X156589936Y-71538873D01*
X156558505Y-71557606D01*
X156555521Y-71558996D01*
X156532679Y-71552810D01*
X156490018Y-71522965D01*
X156425872Y-71468053D01*
X156338579Y-71386666D01*
X156249465Y-71300078D01*
X156163559Y-71214753D01*
X156086673Y-71136892D01*
X156023436Y-71071303D01*
X155978477Y-71022795D01*
X155956424Y-70996175D01*
X155955604Y-70994805D01*
X155953166Y-70976537D01*
X155962350Y-70946705D01*
X155985426Y-70901279D01*
X156024663Y-70836230D01*
X156082330Y-70747530D01*
X156159205Y-70633343D01*
X156227430Y-70532838D01*
X156288418Y-70442697D01*
X156338644Y-70368151D01*
X156374584Y-70314435D01*
X156392713Y-70286782D01*
X156393854Y-70284905D01*
X156391641Y-70258410D01*
X156374862Y-70206914D01*
X156346858Y-70140149D01*
X156336878Y-70118828D01*
X156293328Y-70023841D01*
X156246866Y-69916063D01*
X156209123Y-69822808D01*
X156181927Y-69753594D01*
X156160325Y-69700994D01*
X156147842Y-69673503D01*
X156146291Y-69671384D01*
X156123332Y-69667876D01*
X156069214Y-69658262D01*
X155991132Y-69643911D01*
X155896281Y-69626193D01*
X155791857Y-69606475D01*
X155685056Y-69586126D01*
X155583074Y-69566514D01*
X155493106Y-69549009D01*
X155422347Y-69534978D01*
X155377994Y-69525791D01*
X155367115Y-69523193D01*
X155355878Y-69516782D01*
X155347395Y-69502303D01*
X155341286Y-69474867D01*
X155337168Y-69429589D01*
X155334659Y-69361580D01*
X155333379Y-69265953D01*
X155332946Y-69137820D01*
X155332923Y-69085299D01*
X155332923Y-68658155D01*
X155435500Y-68637909D01*
X155492569Y-68626930D01*
X155577731Y-68610905D01*
X155680628Y-68591767D01*
X155790904Y-68571449D01*
X155821385Y-68565868D01*
X155923145Y-68546083D01*
X156011795Y-68526627D01*
X156079892Y-68509303D01*
X156119996Y-68495912D01*
X156126677Y-68491921D01*
X156143081Y-68463658D01*
X156166601Y-68408891D01*
X156192684Y-68338412D01*
X156197858Y-68323231D01*
X156232044Y-68229104D01*
X156274477Y-68122899D01*
X156316003Y-68027527D01*
X156316208Y-68027084D01*
X156385360Y-67877475D01*
X155930488Y-67208383D01*
X156222500Y-66915884D01*
X156310820Y-66828830D01*
X156391375Y-66752091D01*
X156459640Y-66689763D01*
X156511092Y-66645944D01*
X156541206Y-66624730D01*
X156545526Y-66623384D01*
X156570889Y-66633984D01*
X156622642Y-66663453D01*
X156695132Y-66708295D01*
X156782706Y-66765016D01*
X156877388Y-66828538D01*
X156973484Y-66893332D01*
X157059163Y-66949713D01*
X157128984Y-66994212D01*
X157177506Y-67023361D01*
X157199218Y-67033692D01*
X157225707Y-67024950D01*
X157275938Y-67001913D01*
X157339549Y-66969369D01*
X157346292Y-66965751D01*
X157431954Y-66922790D01*
X157490694Y-66901721D01*
X157527228Y-66901497D01*
X157546269Y-66921072D01*
X157546380Y-66921346D01*
X157555898Y-66944528D01*
X157578597Y-66999559D01*
X157612718Y-67082178D01*
X157656500Y-67188128D01*
X157708184Y-67313148D01*
X157766008Y-67452980D01*
X157822009Y-67588363D01*
X157883553Y-67737766D01*
X157940061Y-67876168D01*
X157989839Y-67999327D01*
X158031194Y-68102998D01*
X158062432Y-68182941D01*
X158081859Y-68234912D01*
X158087846Y-68254308D01*
X158072832Y-68276557D01*
X158033561Y-68312018D01*
X157981193Y-68351113D01*
X157832059Y-68474755D01*
X157715489Y-68616478D01*
X157632882Y-68773296D01*
X157585634Y-68942225D01*
X157575143Y-69120278D01*
X157582769Y-69202461D01*
X157624318Y-69372969D01*
X157695877Y-69523541D01*
X157793005Y-69652691D01*
X157911266Y-69758936D01*
X158046220Y-69840790D01*
X158193429Y-69896768D01*
X158348456Y-69925385D01*
X158506861Y-69925156D01*
X158664206Y-69894595D01*
X158816054Y-69832218D01*
X158957965Y-69736540D01*
X159017197Y-69682428D01*
X159130797Y-69543480D01*
X159209894Y-69391639D01*
X159255014Y-69231333D01*
X159266684Y-69066988D01*
X159245431Y-68903029D01*
X159191780Y-68743882D01*
X159106260Y-68593975D01*
X158989395Y-68457733D01*
X158858807Y-68351113D01*
X158804412Y-68310358D01*
X158765986Y-68275282D01*
X158752154Y-68254274D01*
X158759397Y-68231365D01*
X158779995Y-68176635D01*
X158812254Y-68094328D01*
X158854479Y-67988685D01*
X158904977Y-67863950D01*
X158962052Y-67724364D01*
X159018146Y-67588330D01*
X159080033Y-67438799D01*
X159137356Y-67300233D01*
X159188356Y-67176893D01*
X159231273Y-67073036D01*
X159264347Y-66992920D01*
X159285819Y-66940805D01*
X159293775Y-66921346D01*
X159312571Y-66901577D01*
X159348926Y-66901635D01*
X159407521Y-66922559D01*
X159493032Y-66965387D01*
X159493708Y-66965751D01*
X159558093Y-66998988D01*
X159610139Y-67023198D01*
X159639488Y-67033596D01*
X159640783Y-67033692D01*
X159662876Y-67023145D01*
X159711652Y-66993816D01*
X159781669Y-66949173D01*
X159867486Y-66892686D01*
X159962612Y-66828538D01*
X160059460Y-66763589D01*
X160146747Y-66707104D01*
X160218819Y-66662579D01*
X160270023Y-66633510D01*
X160294474Y-66623384D01*
X160316990Y-66636693D01*
X160362258Y-66673888D01*
X160425756Y-66730872D01*
X160502961Y-66803551D01*
X160589349Y-66887829D01*
X160617601Y-66915984D01*
X160909713Y-67208584D01*
X160687369Y-67534896D01*
X160619798Y-67635103D01*
X160560493Y-67725037D01*
X160512783Y-67799490D01*
X160479993Y-67853249D01*
X160465452Y-67881106D01*
X160465026Y-67883088D01*
X160472692Y-67909345D01*
X160493311Y-67962163D01*
X160523315Y-68032690D01*
X160544375Y-68079907D01*
X160583752Y-68170306D01*
X160620835Y-68261634D01*
X160649585Y-68338800D01*
X160657395Y-68362308D01*
X160679583Y-68425084D01*
X160701273Y-68473589D01*
X160713187Y-68491921D01*
X160739477Y-68503141D01*
X160796858Y-68519046D01*
X160877882Y-68537833D01*
X160975105Y-68557701D01*
X161018615Y-68565868D01*
X161129104Y-68586171D01*
X161235084Y-68605830D01*
X161326199Y-68622912D01*
X161392092Y-68635482D01*
X161404500Y-68637909D01*
X161507077Y-68658155D01*
X161507077Y-69085299D01*
X161506847Y-69225754D01*
X161505901Y-69332021D01*
X161503859Y-69408987D01*
X161500338Y-69461540D01*
X161494957Y-69494567D01*
X161487334Y-69512955D01*
X161477088Y-69521592D01*
X161472885Y-69523193D01*
X161447530Y-69528873D01*
X161391516Y-69540205D01*
X161312036Y-69555821D01*
X161216288Y-69574353D01*
X161111467Y-69594431D01*
X161004768Y-69614688D01*
X160903387Y-69633754D01*
X160814521Y-69650261D01*
X160745363Y-69662841D01*
X160703111Y-69670125D01*
X160693710Y-69671384D01*
X160685193Y-69688237D01*
X160666340Y-69733130D01*
X160640676Y-69797570D01*
X160630877Y-69822808D01*
X160591352Y-69920314D01*
X160544808Y-70028041D01*
X160503123Y-70118828D01*
X160472450Y-70188247D01*
X160452044Y-70245290D01*
X160445232Y-70280223D01*
X160446318Y-70284905D01*
X160460715Y-70307009D01*
X160493588Y-70356169D01*
X160541410Y-70427152D01*
X160600652Y-70514722D01*
X160667785Y-70613643D01*
X160681059Y-70633170D01*
X160758954Y-70748860D01*
X160816213Y-70836956D01*
X160855119Y-70901514D01*
X160877956Y-70946589D01*
X160887006Y-70976237D01*
X160884552Y-70994515D01*
X160884489Y-70994631D01*
X160865173Y-71018639D01*
X160822449Y-71065053D01*
X160760949Y-71129063D01*
X160685302Y-71205855D01*
X160600139Y-71290618D01*
X160590535Y-71300078D01*
X160483210Y-71404011D01*
X160400385Y-71480325D01*
X160340395Y-71530429D01*
X160301577Y-71555730D01*
X160284480Y-71558996D01*
X160259527Y-71544750D01*
X160207745Y-71511844D01*
X160134480Y-71463792D01*
X160045080Y-71404110D01*
X159944889Y-71336312D01*
X159921499Y-71320361D01*
X159589407Y-71093580D01*
X159439435Y-71161647D01*
X159348230Y-71201315D01*
X159250331Y-71241209D01*
X159166169Y-71273017D01*
X159162462Y-71274326D01*
X159096631Y-71298424D01*
X159045884Y-71318800D01*
X159021158Y-71331064D01*
X159021116Y-71331099D01*
X159013271Y-71353266D01*
X158999934Y-71407783D01*
X158982430Y-71488520D01*
X158962083Y-71589350D01*
X158940218Y-71704144D01*
X158938429Y-71713822D01*
X158916496Y-71832096D01*
X158896360Y-71939458D01*
X158879320Y-72029083D01*
X158866672Y-72094149D01*
X158859716Y-72127832D01*
X158859594Y-72128346D01*
X158855361Y-72142675D01*
X158847129Y-72153493D01*
X158829967Y-72161294D01*
X158798942Y-72166571D01*
X158749122Y-72169818D01*
X158675576Y-72171528D01*
X158573371Y-72172193D01*
X158437575Y-72172307D01*
X158420000Y-72172308D01*
X158280122Y-72172224D01*
D10*
X157950000Y-76730000D02*
X158500000Y-76730000D01*
X158500000Y-76730000D02*
X158500000Y-77280000D01*
X157950000Y-87030000D02*
X158500000Y-87030000D01*
X158500000Y-87030000D02*
X158500000Y-86480000D01*
X148750000Y-87030000D02*
X148200000Y-87030000D01*
X148200000Y-87030000D02*
X148200000Y-86480000D01*
X148750000Y-76730000D02*
X148125000Y-76730000D01*
X147942258Y-67902500D02*
X147467742Y-67902500D01*
X147942258Y-66857500D02*
X147467742Y-66857500D01*
X140462164Y-67970000D02*
X140677836Y-67970000D01*
X140462164Y-68690000D02*
X140677836Y-68690000D01*
X148070000Y-68982164D02*
X148070000Y-69197836D01*
X147350000Y-68982164D02*
X147350000Y-69197836D01*
X149090000Y-68982164D02*
X149090000Y-69197836D01*
X148370000Y-68982164D02*
X148370000Y-69197836D01*
X147050000Y-68982164D02*
X147050000Y-69197836D01*
X146330000Y-68982164D02*
X146330000Y-69197836D01*
X137520000Y-75720000D02*
X137520000Y-77520000D01*
X140740000Y-77520000D02*
X140740000Y-75070000D01*
X142730000Y-72280000D02*
X142730000Y-74730000D01*
X145950000Y-74080000D02*
X145950000Y-72280000D01*
X142804500Y-69581858D02*
X142804500Y-69107342D01*
X141759500Y-69581858D02*
X141759500Y-69107342D01*
X143299500Y-69581858D02*
X143299500Y-69107342D01*
X144344500Y-69581858D02*
X144344500Y-69107342D01*
X137537500Y-80452742D02*
X137537500Y-80927258D01*
X138582500Y-80452742D02*
X138582500Y-80927258D01*
X139212742Y-74372500D02*
X139687258Y-74372500D01*
X139212742Y-73327500D02*
X139687258Y-73327500D01*
X140517258Y-85667500D02*
X140042742Y-85667500D01*
X140517258Y-86712500D02*
X140042742Y-86712500D01*
X140517258Y-83867500D02*
X140042742Y-83867500D01*
X140517258Y-84912500D02*
X140042742Y-84912500D01*
X143137258Y-77687500D02*
X142662742Y-77687500D01*
X143137258Y-78732500D02*
X142662742Y-78732500D01*
X144080000Y-64670000D02*
X144080000Y-66000000D01*
X142750000Y-64670000D02*
X144080000Y-64670000D01*
X141480000Y-64670000D02*
X141480000Y-67330000D01*
X141480000Y-67330000D02*
X128720000Y-67330000D01*
X141480000Y-64670000D02*
X128720000Y-64670000D01*
X128720000Y-64670000D02*
X128720000Y-67330000D01*
D12*
X165950000Y-88600000D02*
X164000000Y-88600000D01*
X164000000Y-88600000D02*
X164000000Y-87600000D01*
X164000000Y-77600000D02*
X164000000Y-76600000D01*
X164000000Y-76600000D02*
X165950000Y-76600000D01*
X167450000Y-77400000D02*
X167450000Y-77300000D01*
X167450000Y-87900000D02*
X167450000Y-87800000D01*
X167450000Y-75680000D02*
X167450000Y-75580000D01*
X167450000Y-65180000D02*
X167450000Y-65080000D01*
X164000000Y-64380000D02*
X165950000Y-64380000D01*
X164000000Y-65380000D02*
X164000000Y-64380000D01*
X164000000Y-76380000D02*
X164000000Y-75380000D01*
X165950000Y-76380000D02*
X164000000Y-76380000D01*
D10*
X140830000Y-72850000D02*
X136930000Y-72850000D01*
X140830000Y-70850000D02*
X136930000Y-70850000D01*
X140830000Y-72850000D02*
X140830000Y-70850000D01*
X143342164Y-76990000D02*
X143557836Y-76990000D01*
X143342164Y-76270000D02*
X143557836Y-76270000D01*
X143342164Y-75980000D02*
X143557836Y-75980000D01*
X143342164Y-75260000D02*
X143557836Y-75260000D01*
X144750000Y-77852164D02*
X144750000Y-78067836D01*
X145470000Y-77852164D02*
X145470000Y-78067836D01*
X145470000Y-75962164D02*
X145470000Y-76177836D01*
X144750000Y-75962164D02*
X144750000Y-76177836D01*
X147247836Y-75270000D02*
X147032164Y-75270000D01*
X147247836Y-75990000D02*
X147032164Y-75990000D01*
X143087836Y-82760000D02*
X142872164Y-82760000D01*
X143087836Y-83480000D02*
X142872164Y-83480000D01*
X137160000Y-85182164D02*
X137160000Y-85397836D01*
X137880000Y-85182164D02*
X137880000Y-85397836D01*
X142902164Y-79840000D02*
X143117836Y-79840000D01*
X142902164Y-79120000D02*
X143117836Y-79120000D01*
X142802164Y-81920000D02*
X143017836Y-81920000D01*
X142802164Y-81200000D02*
X143017836Y-81200000D01*
D13*
X152588095Y-74832380D02*
X152588095Y-75641904D01*
X152635714Y-75737142D01*
X152683333Y-75784761D01*
X152778571Y-75832380D01*
X152969047Y-75832380D01*
X153064285Y-75784761D01*
X153111904Y-75737142D01*
X153159523Y-75641904D01*
X153159523Y-74832380D01*
X154159523Y-75832380D02*
X153588095Y-75832380D01*
X153873809Y-75832380D02*
X153873809Y-74832380D01*
X153778571Y-74975238D01*
X153683333Y-75070476D01*
X153588095Y-75118095D01*
X144702380Y-66333333D02*
X145416666Y-66333333D01*
X145559523Y-66380952D01*
X145654761Y-66476190D01*
X145702380Y-66619047D01*
X145702380Y-66714285D01*
X144702380Y-65952380D02*
X144702380Y-65333333D01*
X145083333Y-65666666D01*
X145083333Y-65523809D01*
X145130952Y-65428571D01*
X145178571Y-65380952D01*
X145273809Y-65333333D01*
X145511904Y-65333333D01*
X145607142Y-65380952D01*
X145654761Y-65428571D01*
X145702380Y-65523809D01*
X145702380Y-65809523D01*
X145654761Y-65904761D01*
X145607142Y-65952380D01*
D14*
X165004523Y-83023333D02*
X165911666Y-83023333D01*
X166093095Y-83083809D01*
X166214047Y-83204761D01*
X166274523Y-83386190D01*
X166274523Y-83507142D01*
X165125476Y-82479047D02*
X165065000Y-82418571D01*
X165004523Y-82297619D01*
X165004523Y-81995238D01*
X165065000Y-81874285D01*
X165125476Y-81813809D01*
X165246428Y-81753333D01*
X165367380Y-81753333D01*
X165548809Y-81813809D01*
X166274523Y-82539523D01*
X166274523Y-81753333D01*
X165004523Y-70803333D02*
X165911666Y-70803333D01*
X166093095Y-70863809D01*
X166214047Y-70984761D01*
X166274523Y-71166190D01*
X166274523Y-71287142D01*
X166274523Y-69533333D02*
X166274523Y-70259047D01*
X166274523Y-69896190D02*
X165004523Y-69896190D01*
X165185952Y-70017142D01*
X165306904Y-70138095D01*
X165367380Y-70259047D01*
M02*
