G04 #@! TF.GenerationSoftware,KiCad,Pcbnew,5.1.7-a382d34a8~87~ubuntu20.04.1*
G04 #@! TF.CreationDate,2020-11-21T01:21:06+00:00*
G04 #@! TF.ProjectId,ILI2511-N7,494c4932-3531-4312-9d4e-372e6b696361,rev?*
G04 #@! TF.SameCoordinates,Original*
G04 #@! TF.FileFunction,Legend,Top*
G04 #@! TF.FilePolarity,Positive*
%FSLAX46Y46*%
G04 Gerber Fmt 4.6, Leading zero omitted, Abs format (unit mm)*
G04 Created by KiCad (PCBNEW 5.1.7-a382d34a8~87~ubuntu20.04.1) date 2020-11-21 01:21:06*
%MOMM*%
%LPD*%
G01*
G04 APERTURE LIST*
%ADD10C,0.150000*%
%ADD11C,0.010000*%
%ADD12C,0.120000*%
%ADD13C,0.100000*%
%ADD14C,0.254000*%
G04 APERTURE END LIST*
D10*
X129987142Y-86117380D02*
X129987142Y-85117380D01*
X129987142Y-86069761D02*
X129891904Y-86117380D01*
X129701428Y-86117380D01*
X129606190Y-86069761D01*
X129558571Y-86022142D01*
X129510952Y-85926904D01*
X129510952Y-85641190D01*
X129558571Y-85545952D01*
X129606190Y-85498333D01*
X129701428Y-85450714D01*
X129891904Y-85450714D01*
X129987142Y-85498333D01*
X130891904Y-86117380D02*
X130891904Y-85117380D01*
X130891904Y-86069761D02*
X130796666Y-86117380D01*
X130606190Y-86117380D01*
X130510952Y-86069761D01*
X130463333Y-86022142D01*
X130415714Y-85926904D01*
X130415714Y-85641190D01*
X130463333Y-85545952D01*
X130510952Y-85498333D01*
X130606190Y-85450714D01*
X130796666Y-85450714D01*
X130891904Y-85498333D01*
X131701428Y-85593571D02*
X131844285Y-85641190D01*
X131891904Y-85688809D01*
X131939523Y-85784047D01*
X131939523Y-85926904D01*
X131891904Y-86022142D01*
X131844285Y-86069761D01*
X131749047Y-86117380D01*
X131368095Y-86117380D01*
X131368095Y-85117380D01*
X131701428Y-85117380D01*
X131796666Y-85165000D01*
X131844285Y-85212619D01*
X131891904Y-85307857D01*
X131891904Y-85403095D01*
X131844285Y-85498333D01*
X131796666Y-85545952D01*
X131701428Y-85593571D01*
X131368095Y-85593571D01*
X132558571Y-85117380D02*
X132653809Y-85117380D01*
X132749047Y-85165000D01*
X132796666Y-85212619D01*
X132844285Y-85307857D01*
X132891904Y-85498333D01*
X132891904Y-85736428D01*
X132844285Y-85926904D01*
X132796666Y-86022142D01*
X132749047Y-86069761D01*
X132653809Y-86117380D01*
X132558571Y-86117380D01*
X132463333Y-86069761D01*
X132415714Y-86022142D01*
X132368095Y-85926904D01*
X132320476Y-85736428D01*
X132320476Y-85498333D01*
X132368095Y-85307857D01*
X132415714Y-85212619D01*
X132463333Y-85165000D01*
X132558571Y-85117380D01*
X133796666Y-85117380D02*
X133320476Y-85117380D01*
X133272857Y-85593571D01*
X133320476Y-85545952D01*
X133415714Y-85498333D01*
X133653809Y-85498333D01*
X133749047Y-85545952D01*
X133796666Y-85593571D01*
X133844285Y-85688809D01*
X133844285Y-85926904D01*
X133796666Y-86022142D01*
X133749047Y-86069761D01*
X133653809Y-86117380D01*
X133415714Y-86117380D01*
X133320476Y-86069761D01*
X133272857Y-86022142D01*
X134796666Y-86117380D02*
X134225238Y-86117380D01*
X134510952Y-86117380D02*
X134510952Y-85117380D01*
X134415714Y-85260238D01*
X134320476Y-85355476D01*
X134225238Y-85403095D01*
X135701428Y-85117380D02*
X135225238Y-85117380D01*
X135177619Y-85593571D01*
X135225238Y-85545952D01*
X135320476Y-85498333D01*
X135558571Y-85498333D01*
X135653809Y-85545952D01*
X135701428Y-85593571D01*
X135749047Y-85688809D01*
X135749047Y-85926904D01*
X135701428Y-86022142D01*
X135653809Y-86069761D01*
X135558571Y-86117380D01*
X135320476Y-86117380D01*
X135225238Y-86069761D01*
X135177619Y-86022142D01*
X131915714Y-87100714D02*
X132153809Y-87767380D01*
X132391904Y-87100714D01*
X132725238Y-86862619D02*
X132772857Y-86815000D01*
X132868095Y-86767380D01*
X133106190Y-86767380D01*
X133201428Y-86815000D01*
X133249047Y-86862619D01*
X133296666Y-86957857D01*
X133296666Y-87053095D01*
X133249047Y-87195952D01*
X132677619Y-87767380D01*
X133296666Y-87767380D01*
D11*
G36*
X160461114Y-65865495D02*
G01*
X160386461Y-65828273D01*
X160320569Y-65759739D01*
X160302423Y-65734352D01*
X160282655Y-65701134D01*
X160269828Y-65665055D01*
X160262490Y-65616902D01*
X160259187Y-65547464D01*
X160258462Y-65455794D01*
X160261737Y-65330170D01*
X160273123Y-65235846D01*
X160294959Y-65165477D01*
X160329581Y-65111714D01*
X160379330Y-65067212D01*
X160382986Y-65064577D01*
X160432015Y-65037623D01*
X160491055Y-65024288D01*
X160566141Y-65021000D01*
X160688205Y-65021000D01*
X160688256Y-64902503D01*
X160689392Y-64836508D01*
X160696314Y-64797798D01*
X160714402Y-64774581D01*
X160749038Y-64755067D01*
X160757355Y-64751080D01*
X160796280Y-64732397D01*
X160826417Y-64720597D01*
X160848826Y-64719578D01*
X160864567Y-64733239D01*
X160874698Y-64765478D01*
X160880277Y-64820196D01*
X160882365Y-64901289D01*
X160882019Y-65012656D01*
X160880300Y-65158198D01*
X160879763Y-65201731D01*
X160877828Y-65351795D01*
X160876096Y-65449958D01*
X160688308Y-65449958D01*
X160687252Y-65366636D01*
X160682562Y-65312120D01*
X160671949Y-65276163D01*
X160653128Y-65248518D01*
X160640350Y-65235035D01*
X160588110Y-65195583D01*
X160541858Y-65192372D01*
X160494133Y-65224951D01*
X160492923Y-65226154D01*
X160473506Y-65251332D01*
X160461693Y-65285553D01*
X160455735Y-65338252D01*
X160453880Y-65418869D01*
X160453846Y-65436729D01*
X160458330Y-65547825D01*
X160472926Y-65624839D01*
X160499350Y-65671853D01*
X160539317Y-65692950D01*
X160562416Y-65695077D01*
X160617238Y-65685100D01*
X160654842Y-65652248D01*
X160677477Y-65592143D01*
X160687394Y-65500402D01*
X160688308Y-65449958D01*
X160876096Y-65449958D01*
X160875778Y-65467940D01*
X160873127Y-65555321D01*
X160869394Y-65619095D01*
X160864093Y-65664418D01*
X160856742Y-65696445D01*
X160846857Y-65720332D01*
X160833954Y-65741236D01*
X160828421Y-65749102D01*
X160755031Y-65823405D01*
X160662240Y-65865533D01*
X160554904Y-65877278D01*
X160461114Y-65865495D01*
G37*
X160461114Y-65865495D02*
X160386461Y-65828273D01*
X160320569Y-65759739D01*
X160302423Y-65734352D01*
X160282655Y-65701134D01*
X160269828Y-65665055D01*
X160262490Y-65616902D01*
X160259187Y-65547464D01*
X160258462Y-65455794D01*
X160261737Y-65330170D01*
X160273123Y-65235846D01*
X160294959Y-65165477D01*
X160329581Y-65111714D01*
X160379330Y-65067212D01*
X160382986Y-65064577D01*
X160432015Y-65037623D01*
X160491055Y-65024288D01*
X160566141Y-65021000D01*
X160688205Y-65021000D01*
X160688256Y-64902503D01*
X160689392Y-64836508D01*
X160696314Y-64797798D01*
X160714402Y-64774581D01*
X160749038Y-64755067D01*
X160757355Y-64751080D01*
X160796280Y-64732397D01*
X160826417Y-64720597D01*
X160848826Y-64719578D01*
X160864567Y-64733239D01*
X160874698Y-64765478D01*
X160880277Y-64820196D01*
X160882365Y-64901289D01*
X160882019Y-65012656D01*
X160880300Y-65158198D01*
X160879763Y-65201731D01*
X160877828Y-65351795D01*
X160876096Y-65449958D01*
X160688308Y-65449958D01*
X160687252Y-65366636D01*
X160682562Y-65312120D01*
X160671949Y-65276163D01*
X160653128Y-65248518D01*
X160640350Y-65235035D01*
X160588110Y-65195583D01*
X160541858Y-65192372D01*
X160494133Y-65224951D01*
X160492923Y-65226154D01*
X160473506Y-65251332D01*
X160461693Y-65285553D01*
X160455735Y-65338252D01*
X160453880Y-65418869D01*
X160453846Y-65436729D01*
X160458330Y-65547825D01*
X160472926Y-65624839D01*
X160499350Y-65671853D01*
X160539317Y-65692950D01*
X160562416Y-65695077D01*
X160617238Y-65685100D01*
X160654842Y-65652248D01*
X160677477Y-65592143D01*
X160687394Y-65500402D01*
X160688308Y-65449958D01*
X160876096Y-65449958D01*
X160875778Y-65467940D01*
X160873127Y-65555321D01*
X160869394Y-65619095D01*
X160864093Y-65664418D01*
X160856742Y-65696445D01*
X160846857Y-65720332D01*
X160833954Y-65741236D01*
X160828421Y-65749102D01*
X160755031Y-65823405D01*
X160662240Y-65865533D01*
X160554904Y-65877278D01*
X160461114Y-65865495D01*
G36*
X158958336Y-65854911D02*
G01*
X158895633Y-65818642D01*
X158852039Y-65782642D01*
X158820155Y-65744925D01*
X158798190Y-65698801D01*
X158784351Y-65637579D01*
X158776847Y-65554569D01*
X158773883Y-65443081D01*
X158773539Y-65362938D01*
X158773539Y-65067935D01*
X158939615Y-64993485D01*
X158949385Y-65316598D01*
X158953421Y-65437271D01*
X158957656Y-65524859D01*
X158962903Y-65585350D01*
X158969975Y-65624732D01*
X158979689Y-65648993D01*
X158992856Y-65664120D01*
X158997081Y-65667394D01*
X159061091Y-65692966D01*
X159125792Y-65682847D01*
X159164308Y-65656000D01*
X159179975Y-65636976D01*
X159190820Y-65612012D01*
X159197712Y-65574166D01*
X159201521Y-65516498D01*
X159203117Y-65432065D01*
X159203385Y-65344072D01*
X159203437Y-65233677D01*
X159205328Y-65155537D01*
X159211655Y-65102835D01*
X159225017Y-65068758D01*
X159248015Y-65046489D01*
X159283246Y-65029213D01*
X159330303Y-65011262D01*
X159381697Y-64991722D01*
X159375579Y-65338515D01*
X159373116Y-65463532D01*
X159370233Y-65555918D01*
X159366102Y-65622119D01*
X159359893Y-65668580D01*
X159350774Y-65701744D01*
X159337917Y-65728056D01*
X159322416Y-65751271D01*
X159247629Y-65825431D01*
X159156372Y-65868316D01*
X159057117Y-65878588D01*
X158958336Y-65854911D01*
G37*
X158958336Y-65854911D02*
X158895633Y-65818642D01*
X158852039Y-65782642D01*
X158820155Y-65744925D01*
X158798190Y-65698801D01*
X158784351Y-65637579D01*
X158776847Y-65554569D01*
X158773883Y-65443081D01*
X158773539Y-65362938D01*
X158773539Y-65067935D01*
X158939615Y-64993485D01*
X158949385Y-65316598D01*
X158953421Y-65437271D01*
X158957656Y-65524859D01*
X158962903Y-65585350D01*
X158969975Y-65624732D01*
X158979689Y-65648993D01*
X158992856Y-65664120D01*
X158997081Y-65667394D01*
X159061091Y-65692966D01*
X159125792Y-65682847D01*
X159164308Y-65656000D01*
X159179975Y-65636976D01*
X159190820Y-65612012D01*
X159197712Y-65574166D01*
X159201521Y-65516498D01*
X159203117Y-65432065D01*
X159203385Y-65344072D01*
X159203437Y-65233677D01*
X159205328Y-65155537D01*
X159211655Y-65102835D01*
X159225017Y-65068758D01*
X159248015Y-65046489D01*
X159283246Y-65029213D01*
X159330303Y-65011262D01*
X159381697Y-64991722D01*
X159375579Y-65338515D01*
X159373116Y-65463532D01*
X159370233Y-65555918D01*
X159366102Y-65622119D01*
X159359893Y-65668580D01*
X159350774Y-65701744D01*
X159337917Y-65728056D01*
X159322416Y-65751271D01*
X159247629Y-65825431D01*
X159156372Y-65868316D01*
X159057117Y-65878588D01*
X158958336Y-65854911D01*
G36*
X161213114Y-65862744D02*
G01*
X161121536Y-65814591D01*
X161053951Y-65737095D01*
X161029943Y-65687273D01*
X161011262Y-65612467D01*
X161001699Y-65517948D01*
X161000792Y-65414790D01*
X161008079Y-65314065D01*
X161023097Y-65226847D01*
X161045385Y-65164209D01*
X161052235Y-65153421D01*
X161133368Y-65072895D01*
X161229734Y-65024664D01*
X161334299Y-65010550D01*
X161440032Y-65032371D01*
X161469457Y-65045453D01*
X161526759Y-65085769D01*
X161577050Y-65139225D01*
X161581803Y-65146005D01*
X161601122Y-65178679D01*
X161613892Y-65213606D01*
X161621436Y-65259586D01*
X161625076Y-65325416D01*
X161626135Y-65419895D01*
X161626154Y-65441077D01*
X161626106Y-65447818D01*
X161430769Y-65447818D01*
X161429632Y-65358651D01*
X161425159Y-65299480D01*
X161415754Y-65261259D01*
X161399824Y-65234947D01*
X161391692Y-65226154D01*
X161344942Y-65192739D01*
X161299553Y-65194263D01*
X161253660Y-65223248D01*
X161226288Y-65254191D01*
X161210077Y-65299357D01*
X161200974Y-65370580D01*
X161200349Y-65378886D01*
X161198796Y-65507963D01*
X161215035Y-65603828D01*
X161248848Y-65665893D01*
X161300016Y-65693568D01*
X161318280Y-65695077D01*
X161366240Y-65687487D01*
X161399047Y-65661192D01*
X161419105Y-65610905D01*
X161428822Y-65531336D01*
X161430769Y-65447818D01*
X161626106Y-65447818D01*
X161625426Y-65541751D01*
X161622371Y-65612094D01*
X161615678Y-65660837D01*
X161604040Y-65696712D01*
X161586147Y-65728452D01*
X161582192Y-65734352D01*
X161515733Y-65813896D01*
X161443315Y-65860071D01*
X161355151Y-65878401D01*
X161325213Y-65879297D01*
X161213114Y-65862744D01*
G37*
X161213114Y-65862744D02*
X161121536Y-65814591D01*
X161053951Y-65737095D01*
X161029943Y-65687273D01*
X161011262Y-65612467D01*
X161001699Y-65517948D01*
X161000792Y-65414790D01*
X161008079Y-65314065D01*
X161023097Y-65226847D01*
X161045385Y-65164209D01*
X161052235Y-65153421D01*
X161133368Y-65072895D01*
X161229734Y-65024664D01*
X161334299Y-65010550D01*
X161440032Y-65032371D01*
X161469457Y-65045453D01*
X161526759Y-65085769D01*
X161577050Y-65139225D01*
X161581803Y-65146005D01*
X161601122Y-65178679D01*
X161613892Y-65213606D01*
X161621436Y-65259586D01*
X161625076Y-65325416D01*
X161626135Y-65419895D01*
X161626154Y-65441077D01*
X161626106Y-65447818D01*
X161430769Y-65447818D01*
X161429632Y-65358651D01*
X161425159Y-65299480D01*
X161415754Y-65261259D01*
X161399824Y-65234947D01*
X161391692Y-65226154D01*
X161344942Y-65192739D01*
X161299553Y-65194263D01*
X161253660Y-65223248D01*
X161226288Y-65254191D01*
X161210077Y-65299357D01*
X161200974Y-65370580D01*
X161200349Y-65378886D01*
X161198796Y-65507963D01*
X161215035Y-65603828D01*
X161248848Y-65665893D01*
X161300016Y-65693568D01*
X161318280Y-65695077D01*
X161366240Y-65687487D01*
X161399047Y-65661192D01*
X161419105Y-65610905D01*
X161428822Y-65531336D01*
X161430769Y-65447818D01*
X161626106Y-65447818D01*
X161625426Y-65541751D01*
X161622371Y-65612094D01*
X161615678Y-65660837D01*
X161604040Y-65696712D01*
X161586147Y-65728452D01*
X161582192Y-65734352D01*
X161515733Y-65813896D01*
X161443315Y-65860071D01*
X161355151Y-65878401D01*
X161325213Y-65879297D01*
X161213114Y-65862744D01*
G36*
X159695746Y-65850255D02*
G01*
X159618714Y-65798433D01*
X159559184Y-65723588D01*
X159523622Y-65628346D01*
X159516429Y-65558244D01*
X159517246Y-65528991D01*
X159524086Y-65506593D01*
X159542888Y-65486526D01*
X159579592Y-65464267D01*
X159640138Y-65435291D01*
X159730466Y-65395073D01*
X159730923Y-65394871D01*
X159814067Y-65356790D01*
X159882247Y-65322975D01*
X159928495Y-65297067D01*
X159945842Y-65282705D01*
X159945846Y-65282589D01*
X159930557Y-65251315D01*
X159894804Y-65216843D01*
X159853758Y-65192010D01*
X159832963Y-65187077D01*
X159776230Y-65204138D01*
X159727373Y-65246867D01*
X159703535Y-65293845D01*
X159680603Y-65328478D01*
X159635682Y-65367919D01*
X159582877Y-65401991D01*
X159536290Y-65420520D01*
X159526548Y-65421538D01*
X159515582Y-65404785D01*
X159514921Y-65361961D01*
X159522980Y-65304219D01*
X159538173Y-65242711D01*
X159558914Y-65188591D01*
X159559962Y-65186490D01*
X159622379Y-65099340D01*
X159703274Y-65040061D01*
X159795144Y-65010966D01*
X159890487Y-65014366D01*
X159981802Y-65052572D01*
X159985862Y-65055259D01*
X160057694Y-65120358D01*
X160104927Y-65205295D01*
X160131066Y-65316979D01*
X160134574Y-65348357D01*
X160140787Y-65496464D01*
X160133339Y-65565532D01*
X159945846Y-65565532D01*
X159943410Y-65522448D01*
X159930086Y-65509874D01*
X159896868Y-65519281D01*
X159844506Y-65541517D01*
X159785976Y-65569390D01*
X159784521Y-65570128D01*
X159734911Y-65596223D01*
X159715000Y-65613637D01*
X159719910Y-65631893D01*
X159740584Y-65655880D01*
X159793181Y-65690594D01*
X159849823Y-65693144D01*
X159900631Y-65667881D01*
X159935724Y-65619153D01*
X159945846Y-65565532D01*
X160133339Y-65565532D01*
X160128008Y-65614964D01*
X160095222Y-65708945D01*
X160049579Y-65774785D01*
X159967198Y-65841319D01*
X159876454Y-65874324D01*
X159783815Y-65876427D01*
X159695746Y-65850255D01*
G37*
X159695746Y-65850255D02*
X159618714Y-65798433D01*
X159559184Y-65723588D01*
X159523622Y-65628346D01*
X159516429Y-65558244D01*
X159517246Y-65528991D01*
X159524086Y-65506593D01*
X159542888Y-65486526D01*
X159579592Y-65464267D01*
X159640138Y-65435291D01*
X159730466Y-65395073D01*
X159730923Y-65394871D01*
X159814067Y-65356790D01*
X159882247Y-65322975D01*
X159928495Y-65297067D01*
X159945842Y-65282705D01*
X159945846Y-65282589D01*
X159930557Y-65251315D01*
X159894804Y-65216843D01*
X159853758Y-65192010D01*
X159832963Y-65187077D01*
X159776230Y-65204138D01*
X159727373Y-65246867D01*
X159703535Y-65293845D01*
X159680603Y-65328478D01*
X159635682Y-65367919D01*
X159582877Y-65401991D01*
X159536290Y-65420520D01*
X159526548Y-65421538D01*
X159515582Y-65404785D01*
X159514921Y-65361961D01*
X159522980Y-65304219D01*
X159538173Y-65242711D01*
X159558914Y-65188591D01*
X159559962Y-65186490D01*
X159622379Y-65099340D01*
X159703274Y-65040061D01*
X159795144Y-65010966D01*
X159890487Y-65014366D01*
X159981802Y-65052572D01*
X159985862Y-65055259D01*
X160057694Y-65120358D01*
X160104927Y-65205295D01*
X160131066Y-65316979D01*
X160134574Y-65348357D01*
X160140787Y-65496464D01*
X160133339Y-65565532D01*
X159945846Y-65565532D01*
X159943410Y-65522448D01*
X159930086Y-65509874D01*
X159896868Y-65519281D01*
X159844506Y-65541517D01*
X159785976Y-65569390D01*
X159784521Y-65570128D01*
X159734911Y-65596223D01*
X159715000Y-65613637D01*
X159719910Y-65631893D01*
X159740584Y-65655880D01*
X159793181Y-65690594D01*
X159849823Y-65693144D01*
X159900631Y-65667881D01*
X159935724Y-65619153D01*
X159945846Y-65565532D01*
X160133339Y-65565532D01*
X160128008Y-65614964D01*
X160095222Y-65708945D01*
X160049579Y-65774785D01*
X159967198Y-65841319D01*
X159876454Y-65874324D01*
X159783815Y-65876427D01*
X159695746Y-65850255D01*
G36*
X158070154Y-65957880D02*
G01*
X158064428Y-65878020D01*
X158057851Y-65830961D01*
X158048738Y-65810434D01*
X158035402Y-65810171D01*
X158031077Y-65812622D01*
X157973556Y-65830364D01*
X157898732Y-65829328D01*
X157822661Y-65811090D01*
X157775082Y-65787495D01*
X157726298Y-65749802D01*
X157690636Y-65707145D01*
X157666155Y-65652943D01*
X157650913Y-65580616D01*
X157642970Y-65483581D01*
X157640384Y-65355258D01*
X157640338Y-65330642D01*
X157640308Y-65054130D01*
X157701839Y-65032680D01*
X157745541Y-65018088D01*
X157769518Y-65011294D01*
X157770223Y-65011231D01*
X157772585Y-65029655D01*
X157774594Y-65080474D01*
X157776099Y-65157007D01*
X157776947Y-65252570D01*
X157777077Y-65310671D01*
X157777349Y-65425229D01*
X157778748Y-65507333D01*
X157782151Y-65563607D01*
X157788433Y-65600674D01*
X157798471Y-65625156D01*
X157813139Y-65643675D01*
X157822298Y-65652594D01*
X157885211Y-65688534D01*
X157953864Y-65691225D01*
X158016152Y-65660830D01*
X158027671Y-65649856D01*
X158044567Y-65629221D01*
X158056286Y-65604744D01*
X158063767Y-65569353D01*
X158067946Y-65515974D01*
X158069763Y-65437534D01*
X158070154Y-65329383D01*
X158070154Y-65054130D01*
X158131685Y-65032680D01*
X158175387Y-65018088D01*
X158199364Y-65011294D01*
X158200070Y-65011231D01*
X158201874Y-65029931D01*
X158203500Y-65082678D01*
X158204883Y-65164443D01*
X158205958Y-65270195D01*
X158206660Y-65394906D01*
X158206923Y-65533545D01*
X158206923Y-66068194D01*
X158079923Y-66121764D01*
X158070154Y-65957880D01*
G37*
X158070154Y-65957880D02*
X158064428Y-65878020D01*
X158057851Y-65830961D01*
X158048738Y-65810434D01*
X158035402Y-65810171D01*
X158031077Y-65812622D01*
X157973556Y-65830364D01*
X157898732Y-65829328D01*
X157822661Y-65811090D01*
X157775082Y-65787495D01*
X157726298Y-65749802D01*
X157690636Y-65707145D01*
X157666155Y-65652943D01*
X157650913Y-65580616D01*
X157642970Y-65483581D01*
X157640384Y-65355258D01*
X157640338Y-65330642D01*
X157640308Y-65054130D01*
X157701839Y-65032680D01*
X157745541Y-65018088D01*
X157769518Y-65011294D01*
X157770223Y-65011231D01*
X157772585Y-65029655D01*
X157774594Y-65080474D01*
X157776099Y-65157007D01*
X157776947Y-65252570D01*
X157777077Y-65310671D01*
X157777349Y-65425229D01*
X157778748Y-65507333D01*
X157782151Y-65563607D01*
X157788433Y-65600674D01*
X157798471Y-65625156D01*
X157813139Y-65643675D01*
X157822298Y-65652594D01*
X157885211Y-65688534D01*
X157953864Y-65691225D01*
X158016152Y-65660830D01*
X158027671Y-65649856D01*
X158044567Y-65629221D01*
X158056286Y-65604744D01*
X158063767Y-65569353D01*
X158067946Y-65515974D01*
X158069763Y-65437534D01*
X158070154Y-65329383D01*
X158070154Y-65054130D01*
X158131685Y-65032680D01*
X158175387Y-65018088D01*
X158199364Y-65011294D01*
X158200070Y-65011231D01*
X158201874Y-65029931D01*
X158203500Y-65082678D01*
X158204883Y-65164443D01*
X158205958Y-65270195D01*
X158206660Y-65394906D01*
X158206923Y-65533545D01*
X158206923Y-66068194D01*
X158079923Y-66121764D01*
X158070154Y-65957880D01*
G36*
X157176499Y-65823697D02*
G01*
X157099940Y-65795267D01*
X157099064Y-65794721D01*
X157051715Y-65759873D01*
X157016759Y-65719148D01*
X156992175Y-65666075D01*
X156975938Y-65594186D01*
X156966025Y-65497008D01*
X156960414Y-65368072D01*
X156959923Y-65349702D01*
X156952859Y-65072713D01*
X157012305Y-65041972D01*
X157055319Y-65021198D01*
X157081290Y-65011354D01*
X157082491Y-65011231D01*
X157086986Y-65029394D01*
X157090556Y-65078388D01*
X157092752Y-65149969D01*
X157093231Y-65207932D01*
X157093242Y-65301830D01*
X157097534Y-65360797D01*
X157112497Y-65388921D01*
X157144518Y-65390294D01*
X157199986Y-65369002D01*
X157283731Y-65329864D01*
X157345311Y-65297357D01*
X157376983Y-65269155D01*
X157386294Y-65238418D01*
X157386308Y-65236896D01*
X157370943Y-65183946D01*
X157325453Y-65155340D01*
X157255834Y-65151197D01*
X157205687Y-65151916D01*
X157179246Y-65137473D01*
X157162757Y-65102782D01*
X157153267Y-65058584D01*
X157166943Y-65033507D01*
X157172093Y-65029918D01*
X157220575Y-65015504D01*
X157288469Y-65013463D01*
X157358388Y-65023017D01*
X157407932Y-65040478D01*
X157476430Y-65098636D01*
X157515366Y-65179592D01*
X157523077Y-65242840D01*
X157517193Y-65299889D01*
X157495899Y-65346458D01*
X157453735Y-65387819D01*
X157385241Y-65429245D01*
X157284956Y-65476007D01*
X157278846Y-65478650D01*
X157188510Y-65520383D01*
X157132765Y-65554609D01*
X157108871Y-65585365D01*
X157114087Y-65616689D01*
X157145672Y-65652617D01*
X157155117Y-65660884D01*
X157218383Y-65692942D01*
X157283936Y-65691593D01*
X157341028Y-65660162D01*
X157378907Y-65601976D01*
X157382426Y-65590554D01*
X157416700Y-65535163D01*
X157460191Y-65508482D01*
X157523077Y-65482040D01*
X157523077Y-65550452D01*
X157503948Y-65649890D01*
X157447169Y-65741098D01*
X157417622Y-65771611D01*
X157350458Y-65810772D01*
X157265044Y-65828500D01*
X157176499Y-65823697D01*
G37*
X157176499Y-65823697D02*
X157099940Y-65795267D01*
X157099064Y-65794721D01*
X157051715Y-65759873D01*
X157016759Y-65719148D01*
X156992175Y-65666075D01*
X156975938Y-65594186D01*
X156966025Y-65497008D01*
X156960414Y-65368072D01*
X156959923Y-65349702D01*
X156952859Y-65072713D01*
X157012305Y-65041972D01*
X157055319Y-65021198D01*
X157081290Y-65011354D01*
X157082491Y-65011231D01*
X157086986Y-65029394D01*
X157090556Y-65078388D01*
X157092752Y-65149969D01*
X157093231Y-65207932D01*
X157093242Y-65301830D01*
X157097534Y-65360797D01*
X157112497Y-65388921D01*
X157144518Y-65390294D01*
X157199986Y-65369002D01*
X157283731Y-65329864D01*
X157345311Y-65297357D01*
X157376983Y-65269155D01*
X157386294Y-65238418D01*
X157386308Y-65236896D01*
X157370943Y-65183946D01*
X157325453Y-65155340D01*
X157255834Y-65151197D01*
X157205687Y-65151916D01*
X157179246Y-65137473D01*
X157162757Y-65102782D01*
X157153267Y-65058584D01*
X157166943Y-65033507D01*
X157172093Y-65029918D01*
X157220575Y-65015504D01*
X157288469Y-65013463D01*
X157358388Y-65023017D01*
X157407932Y-65040478D01*
X157476430Y-65098636D01*
X157515366Y-65179592D01*
X157523077Y-65242840D01*
X157517193Y-65299889D01*
X157495899Y-65346458D01*
X157453735Y-65387819D01*
X157385241Y-65429245D01*
X157284956Y-65476007D01*
X157278846Y-65478650D01*
X157188510Y-65520383D01*
X157132765Y-65554609D01*
X157108871Y-65585365D01*
X157114087Y-65616689D01*
X157145672Y-65652617D01*
X157155117Y-65660884D01*
X157218383Y-65692942D01*
X157283936Y-65691593D01*
X157341028Y-65660162D01*
X157378907Y-65601976D01*
X157382426Y-65590554D01*
X157416700Y-65535163D01*
X157460191Y-65508482D01*
X157523077Y-65482040D01*
X157523077Y-65550452D01*
X157503948Y-65649890D01*
X157447169Y-65741098D01*
X157417622Y-65771611D01*
X157350458Y-65810772D01*
X157265044Y-65828500D01*
X157176499Y-65823697D01*
G36*
X156516638Y-65825330D02*
G01*
X156427883Y-65792579D01*
X156355978Y-65734650D01*
X156327856Y-65693872D01*
X156297198Y-65619046D01*
X156297835Y-65564942D01*
X156330013Y-65528554D01*
X156341919Y-65522367D01*
X156393325Y-65503075D01*
X156419578Y-65508018D01*
X156428470Y-65540413D01*
X156428923Y-65558308D01*
X156445203Y-65624141D01*
X156487635Y-65670193D01*
X156546612Y-65692436D01*
X156612525Y-65686839D01*
X156666105Y-65657771D01*
X156684202Y-65641190D01*
X156697029Y-65621075D01*
X156705694Y-65590668D01*
X156711304Y-65543212D01*
X156714965Y-65471950D01*
X156717785Y-65370125D01*
X156718516Y-65337885D01*
X156721180Y-65227590D01*
X156724208Y-65149964D01*
X156728750Y-65098604D01*
X156735954Y-65067110D01*
X156746967Y-65049080D01*
X156762940Y-65038112D01*
X156773166Y-65033267D01*
X156816594Y-65016699D01*
X156842158Y-65011231D01*
X156850605Y-65029493D01*
X156855761Y-65084704D01*
X156857654Y-65177501D01*
X156856311Y-65308522D01*
X156855893Y-65328731D01*
X156852942Y-65448267D01*
X156849452Y-65535551D01*
X156844486Y-65597409D01*
X156837107Y-65640664D01*
X156826376Y-65672140D01*
X156811355Y-65698661D01*
X156803498Y-65710025D01*
X156758447Y-65760308D01*
X156708060Y-65799419D01*
X156701892Y-65802833D01*
X156611542Y-65829788D01*
X156516638Y-65825330D01*
G37*
X156516638Y-65825330D02*
X156427883Y-65792579D01*
X156355978Y-65734650D01*
X156327856Y-65693872D01*
X156297198Y-65619046D01*
X156297835Y-65564942D01*
X156330013Y-65528554D01*
X156341919Y-65522367D01*
X156393325Y-65503075D01*
X156419578Y-65508018D01*
X156428470Y-65540413D01*
X156428923Y-65558308D01*
X156445203Y-65624141D01*
X156487635Y-65670193D01*
X156546612Y-65692436D01*
X156612525Y-65686839D01*
X156666105Y-65657771D01*
X156684202Y-65641190D01*
X156697029Y-65621075D01*
X156705694Y-65590668D01*
X156711304Y-65543212D01*
X156714965Y-65471950D01*
X156717785Y-65370125D01*
X156718516Y-65337885D01*
X156721180Y-65227590D01*
X156724208Y-65149964D01*
X156728750Y-65098604D01*
X156735954Y-65067110D01*
X156746967Y-65049080D01*
X156762940Y-65038112D01*
X156773166Y-65033267D01*
X156816594Y-65016699D01*
X156842158Y-65011231D01*
X156850605Y-65029493D01*
X156855761Y-65084704D01*
X156857654Y-65177501D01*
X156856311Y-65308522D01*
X156855893Y-65328731D01*
X156852942Y-65448267D01*
X156849452Y-65535551D01*
X156844486Y-65597409D01*
X156837107Y-65640664D01*
X156826376Y-65672140D01*
X156811355Y-65698661D01*
X156803498Y-65710025D01*
X156758447Y-65760308D01*
X156708060Y-65799419D01*
X156701892Y-65802833D01*
X156611542Y-65829788D01*
X156516638Y-65825330D01*
G36*
X155627919Y-65669711D02*
G01*
X155628167Y-65523680D01*
X155629128Y-65411345D01*
X155631206Y-65327322D01*
X155634807Y-65266231D01*
X155640335Y-65222691D01*
X155648196Y-65191321D01*
X155658793Y-65166738D01*
X155666818Y-65152706D01*
X155733272Y-65076612D01*
X155817530Y-65028916D01*
X155910751Y-65011801D01*
X156004100Y-65027454D01*
X156059688Y-65055582D01*
X156118043Y-65104240D01*
X156157814Y-65163667D01*
X156181810Y-65241493D01*
X156192839Y-65345348D01*
X156194401Y-65421538D01*
X156194191Y-65427014D01*
X156057692Y-65427014D01*
X156056859Y-65339645D01*
X156053039Y-65281808D01*
X156044254Y-65243971D01*
X156028526Y-65216602D01*
X156009734Y-65195958D01*
X155946625Y-65156110D01*
X155878863Y-65152705D01*
X155814821Y-65185975D01*
X155809836Y-65190483D01*
X155788561Y-65213933D01*
X155775221Y-65241834D01*
X155767999Y-65283359D01*
X155765077Y-65347684D01*
X155764615Y-65418800D01*
X155765617Y-65508142D01*
X155769762Y-65567742D01*
X155778764Y-65606911D01*
X155794333Y-65634960D01*
X155807098Y-65649856D01*
X155866400Y-65687425D01*
X155934699Y-65691943D01*
X155999890Y-65663247D01*
X156012472Y-65652594D01*
X156033889Y-65628937D01*
X156047256Y-65600749D01*
X156054434Y-65558755D01*
X156057281Y-65493681D01*
X156057692Y-65427014D01*
X156194191Y-65427014D01*
X156189678Y-65544235D01*
X156173638Y-65636423D01*
X156143472Y-65705731D01*
X156096371Y-65759789D01*
X156059688Y-65787495D01*
X155993010Y-65817428D01*
X155915728Y-65831322D01*
X155843890Y-65827603D01*
X155803692Y-65812600D01*
X155787918Y-65808330D01*
X155777450Y-65824250D01*
X155770144Y-65866911D01*
X155764615Y-65931894D01*
X155758563Y-66004268D01*
X155750156Y-66047813D01*
X155734859Y-66072713D01*
X155708136Y-66089155D01*
X155691346Y-66096436D01*
X155627846Y-66123037D01*
X155627919Y-65669711D01*
G37*
X155627919Y-65669711D02*
X155628167Y-65523680D01*
X155629128Y-65411345D01*
X155631206Y-65327322D01*
X155634807Y-65266231D01*
X155640335Y-65222691D01*
X155648196Y-65191321D01*
X155658793Y-65166738D01*
X155666818Y-65152706D01*
X155733272Y-65076612D01*
X155817530Y-65028916D01*
X155910751Y-65011801D01*
X156004100Y-65027454D01*
X156059688Y-65055582D01*
X156118043Y-65104240D01*
X156157814Y-65163667D01*
X156181810Y-65241493D01*
X156192839Y-65345348D01*
X156194401Y-65421538D01*
X156194191Y-65427014D01*
X156057692Y-65427014D01*
X156056859Y-65339645D01*
X156053039Y-65281808D01*
X156044254Y-65243971D01*
X156028526Y-65216602D01*
X156009734Y-65195958D01*
X155946625Y-65156110D01*
X155878863Y-65152705D01*
X155814821Y-65185975D01*
X155809836Y-65190483D01*
X155788561Y-65213933D01*
X155775221Y-65241834D01*
X155767999Y-65283359D01*
X155765077Y-65347684D01*
X155764615Y-65418800D01*
X155765617Y-65508142D01*
X155769762Y-65567742D01*
X155778764Y-65606911D01*
X155794333Y-65634960D01*
X155807098Y-65649856D01*
X155866400Y-65687425D01*
X155934699Y-65691943D01*
X155999890Y-65663247D01*
X156012472Y-65652594D01*
X156033889Y-65628937D01*
X156047256Y-65600749D01*
X156054434Y-65558755D01*
X156057281Y-65493681D01*
X156057692Y-65427014D01*
X156194191Y-65427014D01*
X156189678Y-65544235D01*
X156173638Y-65636423D01*
X156143472Y-65705731D01*
X156096371Y-65759789D01*
X156059688Y-65787495D01*
X155993010Y-65817428D01*
X155915728Y-65831322D01*
X155843890Y-65827603D01*
X155803692Y-65812600D01*
X155787918Y-65808330D01*
X155777450Y-65824250D01*
X155770144Y-65866911D01*
X155764615Y-65931894D01*
X155758563Y-66004268D01*
X155750156Y-66047813D01*
X155734859Y-66072713D01*
X155708136Y-66089155D01*
X155691346Y-66096436D01*
X155627846Y-66123037D01*
X155627919Y-65669711D01*
G36*
X154834071Y-65813338D02*
G01*
X154831089Y-65761932D01*
X154828753Y-65683808D01*
X154827251Y-65585143D01*
X154826769Y-65481657D01*
X154826769Y-65131467D01*
X154888599Y-65069637D01*
X154931207Y-65031538D01*
X154968610Y-65016105D01*
X155019730Y-65017082D01*
X155040022Y-65019567D01*
X155103446Y-65026800D01*
X155155905Y-65030945D01*
X155168692Y-65031328D01*
X155211801Y-65028824D01*
X155273456Y-65022538D01*
X155297362Y-65019567D01*
X155356078Y-65014972D01*
X155395536Y-65024954D01*
X155434662Y-65055772D01*
X155448785Y-65069637D01*
X155510615Y-65131467D01*
X155510615Y-65786497D01*
X155460850Y-65809171D01*
X155417998Y-65825966D01*
X155392927Y-65831846D01*
X155386499Y-65813264D01*
X155380491Y-65761345D01*
X155375303Y-65681828D01*
X155371336Y-65580454D01*
X155369423Y-65494808D01*
X155364077Y-65157769D01*
X155317440Y-65151175D01*
X155275024Y-65155786D01*
X155254240Y-65170713D01*
X155248430Y-65198623D01*
X155243470Y-65258075D01*
X155239754Y-65341534D01*
X155237676Y-65441468D01*
X155237376Y-65492896D01*
X155237077Y-65788946D01*
X155175546Y-65810396D01*
X155131996Y-65824980D01*
X155108306Y-65831781D01*
X155107623Y-65831846D01*
X155105246Y-65813358D01*
X155102634Y-65762094D01*
X155100005Y-65684351D01*
X155097579Y-65586426D01*
X155095885Y-65494808D01*
X155090539Y-65157769D01*
X154973308Y-65157769D01*
X154967928Y-65465254D01*
X154962549Y-65772739D01*
X154905399Y-65802293D01*
X154863203Y-65822587D01*
X154838230Y-65831796D01*
X154837509Y-65831846D01*
X154834071Y-65813338D01*
G37*
X154834071Y-65813338D02*
X154831089Y-65761932D01*
X154828753Y-65683808D01*
X154827251Y-65585143D01*
X154826769Y-65481657D01*
X154826769Y-65131467D01*
X154888599Y-65069637D01*
X154931207Y-65031538D01*
X154968610Y-65016105D01*
X155019730Y-65017082D01*
X155040022Y-65019567D01*
X155103446Y-65026800D01*
X155155905Y-65030945D01*
X155168692Y-65031328D01*
X155211801Y-65028824D01*
X155273456Y-65022538D01*
X155297362Y-65019567D01*
X155356078Y-65014972D01*
X155395536Y-65024954D01*
X155434662Y-65055772D01*
X155448785Y-65069637D01*
X155510615Y-65131467D01*
X155510615Y-65786497D01*
X155460850Y-65809171D01*
X155417998Y-65825966D01*
X155392927Y-65831846D01*
X155386499Y-65813264D01*
X155380491Y-65761345D01*
X155375303Y-65681828D01*
X155371336Y-65580454D01*
X155369423Y-65494808D01*
X155364077Y-65157769D01*
X155317440Y-65151175D01*
X155275024Y-65155786D01*
X155254240Y-65170713D01*
X155248430Y-65198623D01*
X155243470Y-65258075D01*
X155239754Y-65341534D01*
X155237676Y-65441468D01*
X155237376Y-65492896D01*
X155237077Y-65788946D01*
X155175546Y-65810396D01*
X155131996Y-65824980D01*
X155108306Y-65831781D01*
X155107623Y-65831846D01*
X155105246Y-65813358D01*
X155102634Y-65762094D01*
X155100005Y-65684351D01*
X155097579Y-65586426D01*
X155095885Y-65494808D01*
X155090539Y-65157769D01*
X154973308Y-65157769D01*
X154967928Y-65465254D01*
X154962549Y-65772739D01*
X154905399Y-65802293D01*
X154863203Y-65822587D01*
X154838230Y-65831796D01*
X154837509Y-65831846D01*
X154834071Y-65813338D01*
G36*
X154342667Y-65816472D02*
G01*
X154286410Y-65790883D01*
X154242253Y-65759876D01*
X154209899Y-65725205D01*
X154187562Y-65680480D01*
X154173454Y-65619308D01*
X154165789Y-65535299D01*
X154162780Y-65422060D01*
X154162462Y-65347491D01*
X154162462Y-65056580D01*
X154212227Y-65033905D01*
X154251424Y-65017333D01*
X154270843Y-65011231D01*
X154274558Y-65029390D01*
X154277505Y-65078352D01*
X154279309Y-65149847D01*
X154279692Y-65206615D01*
X154281339Y-65288629D01*
X154285778Y-65353691D01*
X154292260Y-65393533D01*
X154297410Y-65402000D01*
X154332023Y-65393354D01*
X154386360Y-65371177D01*
X154449278Y-65341114D01*
X154509632Y-65308808D01*
X154556279Y-65279902D01*
X154578074Y-65260039D01*
X154578161Y-65259825D01*
X154576286Y-65223065D01*
X154559475Y-65187974D01*
X154529961Y-65159472D01*
X154486884Y-65149939D01*
X154450068Y-65151050D01*
X154397926Y-65151867D01*
X154370556Y-65139651D01*
X154354118Y-65107376D01*
X154352045Y-65101290D01*
X154344919Y-65055261D01*
X154363976Y-65027313D01*
X154413647Y-65013993D01*
X154467303Y-65011530D01*
X154563858Y-65029790D01*
X154613841Y-65055869D01*
X154675571Y-65117132D01*
X154708310Y-65192330D01*
X154711247Y-65271789D01*
X154683576Y-65345833D01*
X154641953Y-65392231D01*
X154600396Y-65418207D01*
X154535078Y-65451093D01*
X154458962Y-65484443D01*
X154446274Y-65489539D01*
X154362667Y-65526435D01*
X154314470Y-65558954D01*
X154298970Y-65591282D01*
X154313450Y-65627606D01*
X154338308Y-65656000D01*
X154397061Y-65690961D01*
X154461707Y-65693583D01*
X154520992Y-65666642D01*
X154563661Y-65612912D01*
X154569261Y-65599050D01*
X154601867Y-65548064D01*
X154649470Y-65510213D01*
X154709539Y-65479150D01*
X154709539Y-65567232D01*
X154706003Y-65621049D01*
X154690844Y-65663466D01*
X154657232Y-65708721D01*
X154624965Y-65743580D01*
X154574791Y-65792938D01*
X154535807Y-65819453D01*
X154493936Y-65830089D01*
X154446540Y-65831846D01*
X154342667Y-65816472D01*
G37*
X154342667Y-65816472D02*
X154286410Y-65790883D01*
X154242253Y-65759876D01*
X154209899Y-65725205D01*
X154187562Y-65680480D01*
X154173454Y-65619308D01*
X154165789Y-65535299D01*
X154162780Y-65422060D01*
X154162462Y-65347491D01*
X154162462Y-65056580D01*
X154212227Y-65033905D01*
X154251424Y-65017333D01*
X154270843Y-65011231D01*
X154274558Y-65029390D01*
X154277505Y-65078352D01*
X154279309Y-65149847D01*
X154279692Y-65206615D01*
X154281339Y-65288629D01*
X154285778Y-65353691D01*
X154292260Y-65393533D01*
X154297410Y-65402000D01*
X154332023Y-65393354D01*
X154386360Y-65371177D01*
X154449278Y-65341114D01*
X154509632Y-65308808D01*
X154556279Y-65279902D01*
X154578074Y-65260039D01*
X154578161Y-65259825D01*
X154576286Y-65223065D01*
X154559475Y-65187974D01*
X154529961Y-65159472D01*
X154486884Y-65149939D01*
X154450068Y-65151050D01*
X154397926Y-65151867D01*
X154370556Y-65139651D01*
X154354118Y-65107376D01*
X154352045Y-65101290D01*
X154344919Y-65055261D01*
X154363976Y-65027313D01*
X154413647Y-65013993D01*
X154467303Y-65011530D01*
X154563858Y-65029790D01*
X154613841Y-65055869D01*
X154675571Y-65117132D01*
X154708310Y-65192330D01*
X154711247Y-65271789D01*
X154683576Y-65345833D01*
X154641953Y-65392231D01*
X154600396Y-65418207D01*
X154535078Y-65451093D01*
X154458962Y-65484443D01*
X154446274Y-65489539D01*
X154362667Y-65526435D01*
X154314470Y-65558954D01*
X154298970Y-65591282D01*
X154313450Y-65627606D01*
X154338308Y-65656000D01*
X154397061Y-65690961D01*
X154461707Y-65693583D01*
X154520992Y-65666642D01*
X154563661Y-65612912D01*
X154569261Y-65599050D01*
X154601867Y-65548064D01*
X154649470Y-65510213D01*
X154709539Y-65479150D01*
X154709539Y-65567232D01*
X154706003Y-65621049D01*
X154690844Y-65663466D01*
X154657232Y-65708721D01*
X154624965Y-65743580D01*
X154574791Y-65792938D01*
X154535807Y-65819453D01*
X154493936Y-65830089D01*
X154446540Y-65831846D01*
X154342667Y-65816472D01*
G36*
X153659193Y-65813218D02*
G01*
X153635839Y-65803012D01*
X153580098Y-65758866D01*
X153532431Y-65695033D01*
X153502952Y-65626913D01*
X153498154Y-65593330D01*
X153514240Y-65546444D01*
X153549525Y-65521635D01*
X153587356Y-65506613D01*
X153604679Y-65503845D01*
X153613114Y-65523934D01*
X153629770Y-65567649D01*
X153637077Y-65587402D01*
X153678052Y-65655729D01*
X153737378Y-65689809D01*
X153813448Y-65688761D01*
X153819082Y-65687419D01*
X153859695Y-65668164D01*
X153889552Y-65630625D01*
X153909945Y-65570191D01*
X153922164Y-65482249D01*
X153927500Y-65362187D01*
X153928000Y-65298302D01*
X153928248Y-65197597D01*
X153929874Y-65128946D01*
X153934199Y-65085327D01*
X153942546Y-65059718D01*
X153956235Y-65045097D01*
X153976589Y-65034442D01*
X153977766Y-65033905D01*
X154016962Y-65017333D01*
X154036381Y-65011231D01*
X154039365Y-65029681D01*
X154041919Y-65080677D01*
X154043860Y-65157692D01*
X154045003Y-65254195D01*
X154045231Y-65324816D01*
X154044068Y-65461475D01*
X154039521Y-65565149D01*
X154030001Y-65641892D01*
X154013919Y-65697754D01*
X153989687Y-65738788D01*
X153955714Y-65771046D01*
X153922167Y-65793560D01*
X153841501Y-65823524D01*
X153747619Y-65830282D01*
X153659193Y-65813218D01*
G37*
X153659193Y-65813218D02*
X153635839Y-65803012D01*
X153580098Y-65758866D01*
X153532431Y-65695033D01*
X153502952Y-65626913D01*
X153498154Y-65593330D01*
X153514240Y-65546444D01*
X153549525Y-65521635D01*
X153587356Y-65506613D01*
X153604679Y-65503845D01*
X153613114Y-65523934D01*
X153629770Y-65567649D01*
X153637077Y-65587402D01*
X153678052Y-65655729D01*
X153737378Y-65689809D01*
X153813448Y-65688761D01*
X153819082Y-65687419D01*
X153859695Y-65668164D01*
X153889552Y-65630625D01*
X153909945Y-65570191D01*
X153922164Y-65482249D01*
X153927500Y-65362187D01*
X153928000Y-65298302D01*
X153928248Y-65197597D01*
X153929874Y-65128946D01*
X153934199Y-65085327D01*
X153942546Y-65059718D01*
X153956235Y-65045097D01*
X153976589Y-65034442D01*
X153977766Y-65033905D01*
X154016962Y-65017333D01*
X154036381Y-65011231D01*
X154039365Y-65029681D01*
X154041919Y-65080677D01*
X154043860Y-65157692D01*
X154045003Y-65254195D01*
X154045231Y-65324816D01*
X154044068Y-65461475D01*
X154039521Y-65565149D01*
X154030001Y-65641892D01*
X154013919Y-65697754D01*
X153989687Y-65738788D01*
X153955714Y-65771046D01*
X153922167Y-65793560D01*
X153841501Y-65823524D01*
X153747619Y-65830282D01*
X153659193Y-65813218D01*
G36*
X152984776Y-65802162D02*
G01*
X152907472Y-65751639D01*
X152870186Y-65706410D01*
X152840647Y-65624337D01*
X152838301Y-65559393D01*
X152843615Y-65472555D01*
X153043885Y-65384897D01*
X153141261Y-65340113D01*
X153204887Y-65304087D01*
X153237971Y-65272883D01*
X153243720Y-65242564D01*
X153225342Y-65209195D01*
X153205077Y-65187077D01*
X153146111Y-65151607D01*
X153081976Y-65149121D01*
X153023074Y-65176765D01*
X152979803Y-65231680D01*
X152972064Y-65251072D01*
X152934994Y-65311636D01*
X152892346Y-65337448D01*
X152833846Y-65359529D01*
X152833846Y-65275816D01*
X152839018Y-65218850D01*
X152859277Y-65170811D01*
X152901738Y-65115654D01*
X152908049Y-65108486D01*
X152955280Y-65059415D01*
X152995879Y-65033080D01*
X153046672Y-65020965D01*
X153088780Y-65016997D01*
X153164098Y-65016009D01*
X153217714Y-65028534D01*
X153251162Y-65047131D01*
X153303732Y-65088025D01*
X153340121Y-65132252D01*
X153363150Y-65187874D01*
X153375641Y-65262953D01*
X153380413Y-65365551D01*
X153380794Y-65417624D01*
X153379499Y-65480052D01*
X153261529Y-65480052D01*
X153260161Y-65446562D01*
X153256751Y-65441077D01*
X153234247Y-65448528D01*
X153185818Y-65468247D01*
X153121092Y-65496282D01*
X153107557Y-65502308D01*
X153025756Y-65543904D01*
X152980688Y-65580462D01*
X152970783Y-65614704D01*
X152994474Y-65649352D01*
X153014040Y-65664661D01*
X153084640Y-65695279D01*
X153150720Y-65690220D01*
X153206041Y-65652849D01*
X153244364Y-65586527D01*
X153256651Y-65533884D01*
X153261529Y-65480052D01*
X153379499Y-65480052D01*
X153378270Y-65539280D01*
X153368968Y-65629290D01*
X153350540Y-65694833D01*
X153320640Y-65743088D01*
X153276920Y-65781233D01*
X153257859Y-65793560D01*
X153171274Y-65825664D01*
X153076478Y-65827684D01*
X152984776Y-65802162D01*
G37*
X152984776Y-65802162D02*
X152907472Y-65751639D01*
X152870186Y-65706410D01*
X152840647Y-65624337D01*
X152838301Y-65559393D01*
X152843615Y-65472555D01*
X153043885Y-65384897D01*
X153141261Y-65340113D01*
X153204887Y-65304087D01*
X153237971Y-65272883D01*
X153243720Y-65242564D01*
X153225342Y-65209195D01*
X153205077Y-65187077D01*
X153146111Y-65151607D01*
X153081976Y-65149121D01*
X153023074Y-65176765D01*
X152979803Y-65231680D01*
X152972064Y-65251072D01*
X152934994Y-65311636D01*
X152892346Y-65337448D01*
X152833846Y-65359529D01*
X152833846Y-65275816D01*
X152839018Y-65218850D01*
X152859277Y-65170811D01*
X152901738Y-65115654D01*
X152908049Y-65108486D01*
X152955280Y-65059415D01*
X152995879Y-65033080D01*
X153046672Y-65020965D01*
X153088780Y-65016997D01*
X153164098Y-65016009D01*
X153217714Y-65028534D01*
X153251162Y-65047131D01*
X153303732Y-65088025D01*
X153340121Y-65132252D01*
X153363150Y-65187874D01*
X153375641Y-65262953D01*
X153380413Y-65365551D01*
X153380794Y-65417624D01*
X153379499Y-65480052D01*
X153261529Y-65480052D01*
X153260161Y-65446562D01*
X153256751Y-65441077D01*
X153234247Y-65448528D01*
X153185818Y-65468247D01*
X153121092Y-65496282D01*
X153107557Y-65502308D01*
X153025756Y-65543904D01*
X152980688Y-65580462D01*
X152970783Y-65614704D01*
X152994474Y-65649352D01*
X153014040Y-65664661D01*
X153084640Y-65695279D01*
X153150720Y-65690220D01*
X153206041Y-65652849D01*
X153244364Y-65586527D01*
X153256651Y-65533884D01*
X153261529Y-65480052D01*
X153379499Y-65480052D01*
X153378270Y-65539280D01*
X153368968Y-65629290D01*
X153350540Y-65694833D01*
X153320640Y-65743088D01*
X153276920Y-65781233D01*
X153257859Y-65793560D01*
X153171274Y-65825664D01*
X153076478Y-65827684D01*
X152984776Y-65802162D01*
G36*
X157090122Y-72162224D02*
G01*
X156984388Y-72161645D01*
X156907868Y-72160078D01*
X156855628Y-72157028D01*
X156822737Y-72152004D01*
X156804263Y-72144511D01*
X156795273Y-72134056D01*
X156790837Y-72120147D01*
X156790406Y-72118346D01*
X156783667Y-72085855D01*
X156771192Y-72021748D01*
X156754281Y-71932849D01*
X156734229Y-71825981D01*
X156712336Y-71707967D01*
X156711571Y-71703822D01*
X156689641Y-71588169D01*
X156669123Y-71485986D01*
X156651341Y-71403402D01*
X156637619Y-71346544D01*
X156629282Y-71321542D01*
X156628884Y-71321099D01*
X156604323Y-71308890D01*
X156553685Y-71288544D01*
X156487905Y-71264455D01*
X156487539Y-71264326D01*
X156404683Y-71233182D01*
X156307000Y-71193509D01*
X156214923Y-71153619D01*
X156210566Y-71151647D01*
X156060593Y-71083580D01*
X155728502Y-71310361D01*
X155626626Y-71379496D01*
X155534343Y-71441303D01*
X155456997Y-71492267D01*
X155399936Y-71528873D01*
X155368505Y-71547606D01*
X155365521Y-71548996D01*
X155342679Y-71542810D01*
X155300018Y-71512965D01*
X155235872Y-71458053D01*
X155148579Y-71376666D01*
X155059465Y-71290078D01*
X154973559Y-71204753D01*
X154896673Y-71126892D01*
X154833436Y-71061303D01*
X154788477Y-71012795D01*
X154766424Y-70986175D01*
X154765604Y-70984805D01*
X154763166Y-70966537D01*
X154772350Y-70936705D01*
X154795426Y-70891279D01*
X154834663Y-70826230D01*
X154892330Y-70737530D01*
X154969205Y-70623343D01*
X155037430Y-70522838D01*
X155098418Y-70432697D01*
X155148644Y-70358151D01*
X155184584Y-70304435D01*
X155202713Y-70276782D01*
X155203854Y-70274905D01*
X155201641Y-70248410D01*
X155184862Y-70196914D01*
X155156858Y-70130149D01*
X155146878Y-70108828D01*
X155103328Y-70013841D01*
X155056866Y-69906063D01*
X155019123Y-69812808D01*
X154991927Y-69743594D01*
X154970325Y-69690994D01*
X154957842Y-69663503D01*
X154956291Y-69661384D01*
X154933332Y-69657876D01*
X154879214Y-69648262D01*
X154801132Y-69633911D01*
X154706281Y-69616193D01*
X154601857Y-69596475D01*
X154495056Y-69576126D01*
X154393074Y-69556514D01*
X154303106Y-69539009D01*
X154232347Y-69524978D01*
X154187994Y-69515791D01*
X154177115Y-69513193D01*
X154165878Y-69506782D01*
X154157395Y-69492303D01*
X154151286Y-69464867D01*
X154147168Y-69419589D01*
X154144659Y-69351580D01*
X154143379Y-69255953D01*
X154142946Y-69127820D01*
X154142923Y-69075299D01*
X154142923Y-68648155D01*
X154245500Y-68627909D01*
X154302569Y-68616930D01*
X154387731Y-68600905D01*
X154490628Y-68581767D01*
X154600904Y-68561449D01*
X154631385Y-68555868D01*
X154733145Y-68536083D01*
X154821795Y-68516627D01*
X154889892Y-68499303D01*
X154929996Y-68485912D01*
X154936677Y-68481921D01*
X154953081Y-68453658D01*
X154976601Y-68398891D01*
X155002684Y-68328412D01*
X155007858Y-68313231D01*
X155042044Y-68219104D01*
X155084477Y-68112899D01*
X155126003Y-68017527D01*
X155126208Y-68017084D01*
X155195360Y-67867475D01*
X154740488Y-67198383D01*
X155032500Y-66905884D01*
X155120820Y-66818830D01*
X155201375Y-66742091D01*
X155269640Y-66679763D01*
X155321092Y-66635944D01*
X155351206Y-66614730D01*
X155355526Y-66613384D01*
X155380889Y-66623984D01*
X155432642Y-66653453D01*
X155505132Y-66698295D01*
X155592706Y-66755016D01*
X155687388Y-66818538D01*
X155783484Y-66883332D01*
X155869163Y-66939713D01*
X155938984Y-66984212D01*
X155987506Y-67013361D01*
X156009218Y-67023692D01*
X156035707Y-67014950D01*
X156085938Y-66991913D01*
X156149549Y-66959369D01*
X156156292Y-66955751D01*
X156241954Y-66912790D01*
X156300694Y-66891721D01*
X156337228Y-66891497D01*
X156356269Y-66911072D01*
X156356380Y-66911346D01*
X156365898Y-66934528D01*
X156388597Y-66989559D01*
X156422718Y-67072178D01*
X156466500Y-67178128D01*
X156518184Y-67303148D01*
X156576008Y-67442980D01*
X156632009Y-67578363D01*
X156693553Y-67727766D01*
X156750061Y-67866168D01*
X156799839Y-67989327D01*
X156841194Y-68092998D01*
X156872432Y-68172941D01*
X156891859Y-68224912D01*
X156897846Y-68244308D01*
X156882832Y-68266557D01*
X156843561Y-68302018D01*
X156791193Y-68341113D01*
X156642059Y-68464755D01*
X156525489Y-68606478D01*
X156442882Y-68763296D01*
X156395634Y-68932225D01*
X156385143Y-69110278D01*
X156392769Y-69192461D01*
X156434318Y-69362969D01*
X156505877Y-69513541D01*
X156603005Y-69642691D01*
X156721266Y-69748936D01*
X156856220Y-69830790D01*
X157003429Y-69886768D01*
X157158456Y-69915385D01*
X157316861Y-69915156D01*
X157474206Y-69884595D01*
X157626054Y-69822218D01*
X157767965Y-69726540D01*
X157827197Y-69672428D01*
X157940797Y-69533480D01*
X158019894Y-69381639D01*
X158065014Y-69221333D01*
X158076684Y-69056988D01*
X158055431Y-68893029D01*
X158001780Y-68733882D01*
X157916260Y-68583975D01*
X157799395Y-68447733D01*
X157668807Y-68341113D01*
X157614412Y-68300358D01*
X157575986Y-68265282D01*
X157562154Y-68244274D01*
X157569397Y-68221365D01*
X157589995Y-68166635D01*
X157622254Y-68084328D01*
X157664479Y-67978685D01*
X157714977Y-67853950D01*
X157772052Y-67714364D01*
X157828146Y-67578330D01*
X157890033Y-67428799D01*
X157947356Y-67290233D01*
X157998356Y-67166893D01*
X158041273Y-67063036D01*
X158074347Y-66982920D01*
X158095819Y-66930805D01*
X158103775Y-66911346D01*
X158122571Y-66891577D01*
X158158926Y-66891635D01*
X158217521Y-66912559D01*
X158303032Y-66955387D01*
X158303708Y-66955751D01*
X158368093Y-66988988D01*
X158420139Y-67013198D01*
X158449488Y-67023596D01*
X158450783Y-67023692D01*
X158472876Y-67013145D01*
X158521652Y-66983816D01*
X158591669Y-66939173D01*
X158677486Y-66882686D01*
X158772612Y-66818538D01*
X158869460Y-66753589D01*
X158956747Y-66697104D01*
X159028819Y-66652579D01*
X159080023Y-66623510D01*
X159104474Y-66613384D01*
X159126990Y-66626693D01*
X159172258Y-66663888D01*
X159235756Y-66720872D01*
X159312961Y-66793551D01*
X159399349Y-66877829D01*
X159427601Y-66905984D01*
X159719713Y-67198584D01*
X159497369Y-67524896D01*
X159429798Y-67625103D01*
X159370493Y-67715037D01*
X159322783Y-67789490D01*
X159289993Y-67843249D01*
X159275452Y-67871106D01*
X159275026Y-67873088D01*
X159282692Y-67899345D01*
X159303311Y-67952163D01*
X159333315Y-68022690D01*
X159354375Y-68069907D01*
X159393752Y-68160306D01*
X159430835Y-68251634D01*
X159459585Y-68328800D01*
X159467395Y-68352308D01*
X159489583Y-68415084D01*
X159511273Y-68463589D01*
X159523187Y-68481921D01*
X159549477Y-68493141D01*
X159606858Y-68509046D01*
X159687882Y-68527833D01*
X159785105Y-68547701D01*
X159828615Y-68555868D01*
X159939104Y-68576171D01*
X160045084Y-68595830D01*
X160136199Y-68612912D01*
X160202092Y-68625482D01*
X160214500Y-68627909D01*
X160317077Y-68648155D01*
X160317077Y-69075299D01*
X160316847Y-69215754D01*
X160315901Y-69322021D01*
X160313859Y-69398987D01*
X160310338Y-69451540D01*
X160304957Y-69484567D01*
X160297334Y-69502955D01*
X160287088Y-69511592D01*
X160282885Y-69513193D01*
X160257530Y-69518873D01*
X160201516Y-69530205D01*
X160122036Y-69545821D01*
X160026288Y-69564353D01*
X159921467Y-69584431D01*
X159814768Y-69604688D01*
X159713387Y-69623754D01*
X159624521Y-69640261D01*
X159555363Y-69652841D01*
X159513111Y-69660125D01*
X159503710Y-69661384D01*
X159495193Y-69678237D01*
X159476340Y-69723130D01*
X159450676Y-69787570D01*
X159440877Y-69812808D01*
X159401352Y-69910314D01*
X159354808Y-70018041D01*
X159313123Y-70108828D01*
X159282450Y-70178247D01*
X159262044Y-70235290D01*
X159255232Y-70270223D01*
X159256318Y-70274905D01*
X159270715Y-70297009D01*
X159303588Y-70346169D01*
X159351410Y-70417152D01*
X159410652Y-70504722D01*
X159477785Y-70603643D01*
X159491059Y-70623170D01*
X159568954Y-70738860D01*
X159626213Y-70826956D01*
X159665119Y-70891514D01*
X159687956Y-70936589D01*
X159697006Y-70966237D01*
X159694552Y-70984515D01*
X159694489Y-70984631D01*
X159675173Y-71008639D01*
X159632449Y-71055053D01*
X159570949Y-71119063D01*
X159495302Y-71195855D01*
X159410139Y-71280618D01*
X159400535Y-71290078D01*
X159293210Y-71394011D01*
X159210385Y-71470325D01*
X159150395Y-71520429D01*
X159111577Y-71545730D01*
X159094480Y-71548996D01*
X159069527Y-71534750D01*
X159017745Y-71501844D01*
X158944480Y-71453792D01*
X158855080Y-71394110D01*
X158754889Y-71326312D01*
X158731499Y-71310361D01*
X158399407Y-71083580D01*
X158249435Y-71151647D01*
X158158230Y-71191315D01*
X158060331Y-71231209D01*
X157976169Y-71263017D01*
X157972462Y-71264326D01*
X157906631Y-71288424D01*
X157855884Y-71308800D01*
X157831158Y-71321064D01*
X157831116Y-71321099D01*
X157823271Y-71343266D01*
X157809934Y-71397783D01*
X157792430Y-71478520D01*
X157772083Y-71579350D01*
X157750218Y-71694144D01*
X157748429Y-71703822D01*
X157726496Y-71822096D01*
X157706360Y-71929458D01*
X157689320Y-72019083D01*
X157676672Y-72084149D01*
X157669716Y-72117832D01*
X157669594Y-72118346D01*
X157665361Y-72132675D01*
X157657129Y-72143493D01*
X157639967Y-72151294D01*
X157608942Y-72156571D01*
X157559122Y-72159818D01*
X157485576Y-72161528D01*
X157383371Y-72162193D01*
X157247575Y-72162307D01*
X157230000Y-72162308D01*
X157090122Y-72162224D01*
G37*
X157090122Y-72162224D02*
X156984388Y-72161645D01*
X156907868Y-72160078D01*
X156855628Y-72157028D01*
X156822737Y-72152004D01*
X156804263Y-72144511D01*
X156795273Y-72134056D01*
X156790837Y-72120147D01*
X156790406Y-72118346D01*
X156783667Y-72085855D01*
X156771192Y-72021748D01*
X156754281Y-71932849D01*
X156734229Y-71825981D01*
X156712336Y-71707967D01*
X156711571Y-71703822D01*
X156689641Y-71588169D01*
X156669123Y-71485986D01*
X156651341Y-71403402D01*
X156637619Y-71346544D01*
X156629282Y-71321542D01*
X156628884Y-71321099D01*
X156604323Y-71308890D01*
X156553685Y-71288544D01*
X156487905Y-71264455D01*
X156487539Y-71264326D01*
X156404683Y-71233182D01*
X156307000Y-71193509D01*
X156214923Y-71153619D01*
X156210566Y-71151647D01*
X156060593Y-71083580D01*
X155728502Y-71310361D01*
X155626626Y-71379496D01*
X155534343Y-71441303D01*
X155456997Y-71492267D01*
X155399936Y-71528873D01*
X155368505Y-71547606D01*
X155365521Y-71548996D01*
X155342679Y-71542810D01*
X155300018Y-71512965D01*
X155235872Y-71458053D01*
X155148579Y-71376666D01*
X155059465Y-71290078D01*
X154973559Y-71204753D01*
X154896673Y-71126892D01*
X154833436Y-71061303D01*
X154788477Y-71012795D01*
X154766424Y-70986175D01*
X154765604Y-70984805D01*
X154763166Y-70966537D01*
X154772350Y-70936705D01*
X154795426Y-70891279D01*
X154834663Y-70826230D01*
X154892330Y-70737530D01*
X154969205Y-70623343D01*
X155037430Y-70522838D01*
X155098418Y-70432697D01*
X155148644Y-70358151D01*
X155184584Y-70304435D01*
X155202713Y-70276782D01*
X155203854Y-70274905D01*
X155201641Y-70248410D01*
X155184862Y-70196914D01*
X155156858Y-70130149D01*
X155146878Y-70108828D01*
X155103328Y-70013841D01*
X155056866Y-69906063D01*
X155019123Y-69812808D01*
X154991927Y-69743594D01*
X154970325Y-69690994D01*
X154957842Y-69663503D01*
X154956291Y-69661384D01*
X154933332Y-69657876D01*
X154879214Y-69648262D01*
X154801132Y-69633911D01*
X154706281Y-69616193D01*
X154601857Y-69596475D01*
X154495056Y-69576126D01*
X154393074Y-69556514D01*
X154303106Y-69539009D01*
X154232347Y-69524978D01*
X154187994Y-69515791D01*
X154177115Y-69513193D01*
X154165878Y-69506782D01*
X154157395Y-69492303D01*
X154151286Y-69464867D01*
X154147168Y-69419589D01*
X154144659Y-69351580D01*
X154143379Y-69255953D01*
X154142946Y-69127820D01*
X154142923Y-69075299D01*
X154142923Y-68648155D01*
X154245500Y-68627909D01*
X154302569Y-68616930D01*
X154387731Y-68600905D01*
X154490628Y-68581767D01*
X154600904Y-68561449D01*
X154631385Y-68555868D01*
X154733145Y-68536083D01*
X154821795Y-68516627D01*
X154889892Y-68499303D01*
X154929996Y-68485912D01*
X154936677Y-68481921D01*
X154953081Y-68453658D01*
X154976601Y-68398891D01*
X155002684Y-68328412D01*
X155007858Y-68313231D01*
X155042044Y-68219104D01*
X155084477Y-68112899D01*
X155126003Y-68017527D01*
X155126208Y-68017084D01*
X155195360Y-67867475D01*
X154740488Y-67198383D01*
X155032500Y-66905884D01*
X155120820Y-66818830D01*
X155201375Y-66742091D01*
X155269640Y-66679763D01*
X155321092Y-66635944D01*
X155351206Y-66614730D01*
X155355526Y-66613384D01*
X155380889Y-66623984D01*
X155432642Y-66653453D01*
X155505132Y-66698295D01*
X155592706Y-66755016D01*
X155687388Y-66818538D01*
X155783484Y-66883332D01*
X155869163Y-66939713D01*
X155938984Y-66984212D01*
X155987506Y-67013361D01*
X156009218Y-67023692D01*
X156035707Y-67014950D01*
X156085938Y-66991913D01*
X156149549Y-66959369D01*
X156156292Y-66955751D01*
X156241954Y-66912790D01*
X156300694Y-66891721D01*
X156337228Y-66891497D01*
X156356269Y-66911072D01*
X156356380Y-66911346D01*
X156365898Y-66934528D01*
X156388597Y-66989559D01*
X156422718Y-67072178D01*
X156466500Y-67178128D01*
X156518184Y-67303148D01*
X156576008Y-67442980D01*
X156632009Y-67578363D01*
X156693553Y-67727766D01*
X156750061Y-67866168D01*
X156799839Y-67989327D01*
X156841194Y-68092998D01*
X156872432Y-68172941D01*
X156891859Y-68224912D01*
X156897846Y-68244308D01*
X156882832Y-68266557D01*
X156843561Y-68302018D01*
X156791193Y-68341113D01*
X156642059Y-68464755D01*
X156525489Y-68606478D01*
X156442882Y-68763296D01*
X156395634Y-68932225D01*
X156385143Y-69110278D01*
X156392769Y-69192461D01*
X156434318Y-69362969D01*
X156505877Y-69513541D01*
X156603005Y-69642691D01*
X156721266Y-69748936D01*
X156856220Y-69830790D01*
X157003429Y-69886768D01*
X157158456Y-69915385D01*
X157316861Y-69915156D01*
X157474206Y-69884595D01*
X157626054Y-69822218D01*
X157767965Y-69726540D01*
X157827197Y-69672428D01*
X157940797Y-69533480D01*
X158019894Y-69381639D01*
X158065014Y-69221333D01*
X158076684Y-69056988D01*
X158055431Y-68893029D01*
X158001780Y-68733882D01*
X157916260Y-68583975D01*
X157799395Y-68447733D01*
X157668807Y-68341113D01*
X157614412Y-68300358D01*
X157575986Y-68265282D01*
X157562154Y-68244274D01*
X157569397Y-68221365D01*
X157589995Y-68166635D01*
X157622254Y-68084328D01*
X157664479Y-67978685D01*
X157714977Y-67853950D01*
X157772052Y-67714364D01*
X157828146Y-67578330D01*
X157890033Y-67428799D01*
X157947356Y-67290233D01*
X157998356Y-67166893D01*
X158041273Y-67063036D01*
X158074347Y-66982920D01*
X158095819Y-66930805D01*
X158103775Y-66911346D01*
X158122571Y-66891577D01*
X158158926Y-66891635D01*
X158217521Y-66912559D01*
X158303032Y-66955387D01*
X158303708Y-66955751D01*
X158368093Y-66988988D01*
X158420139Y-67013198D01*
X158449488Y-67023596D01*
X158450783Y-67023692D01*
X158472876Y-67013145D01*
X158521652Y-66983816D01*
X158591669Y-66939173D01*
X158677486Y-66882686D01*
X158772612Y-66818538D01*
X158869460Y-66753589D01*
X158956747Y-66697104D01*
X159028819Y-66652579D01*
X159080023Y-66623510D01*
X159104474Y-66613384D01*
X159126990Y-66626693D01*
X159172258Y-66663888D01*
X159235756Y-66720872D01*
X159312961Y-66793551D01*
X159399349Y-66877829D01*
X159427601Y-66905984D01*
X159719713Y-67198584D01*
X159497369Y-67524896D01*
X159429798Y-67625103D01*
X159370493Y-67715037D01*
X159322783Y-67789490D01*
X159289993Y-67843249D01*
X159275452Y-67871106D01*
X159275026Y-67873088D01*
X159282692Y-67899345D01*
X159303311Y-67952163D01*
X159333315Y-68022690D01*
X159354375Y-68069907D01*
X159393752Y-68160306D01*
X159430835Y-68251634D01*
X159459585Y-68328800D01*
X159467395Y-68352308D01*
X159489583Y-68415084D01*
X159511273Y-68463589D01*
X159523187Y-68481921D01*
X159549477Y-68493141D01*
X159606858Y-68509046D01*
X159687882Y-68527833D01*
X159785105Y-68547701D01*
X159828615Y-68555868D01*
X159939104Y-68576171D01*
X160045084Y-68595830D01*
X160136199Y-68612912D01*
X160202092Y-68625482D01*
X160214500Y-68627909D01*
X160317077Y-68648155D01*
X160317077Y-69075299D01*
X160316847Y-69215754D01*
X160315901Y-69322021D01*
X160313859Y-69398987D01*
X160310338Y-69451540D01*
X160304957Y-69484567D01*
X160297334Y-69502955D01*
X160287088Y-69511592D01*
X160282885Y-69513193D01*
X160257530Y-69518873D01*
X160201516Y-69530205D01*
X160122036Y-69545821D01*
X160026288Y-69564353D01*
X159921467Y-69584431D01*
X159814768Y-69604688D01*
X159713387Y-69623754D01*
X159624521Y-69640261D01*
X159555363Y-69652841D01*
X159513111Y-69660125D01*
X159503710Y-69661384D01*
X159495193Y-69678237D01*
X159476340Y-69723130D01*
X159450676Y-69787570D01*
X159440877Y-69812808D01*
X159401352Y-69910314D01*
X159354808Y-70018041D01*
X159313123Y-70108828D01*
X159282450Y-70178247D01*
X159262044Y-70235290D01*
X159255232Y-70270223D01*
X159256318Y-70274905D01*
X159270715Y-70297009D01*
X159303588Y-70346169D01*
X159351410Y-70417152D01*
X159410652Y-70504722D01*
X159477785Y-70603643D01*
X159491059Y-70623170D01*
X159568954Y-70738860D01*
X159626213Y-70826956D01*
X159665119Y-70891514D01*
X159687956Y-70936589D01*
X159697006Y-70966237D01*
X159694552Y-70984515D01*
X159694489Y-70984631D01*
X159675173Y-71008639D01*
X159632449Y-71055053D01*
X159570949Y-71119063D01*
X159495302Y-71195855D01*
X159410139Y-71280618D01*
X159400535Y-71290078D01*
X159293210Y-71394011D01*
X159210385Y-71470325D01*
X159150395Y-71520429D01*
X159111577Y-71545730D01*
X159094480Y-71548996D01*
X159069527Y-71534750D01*
X159017745Y-71501844D01*
X158944480Y-71453792D01*
X158855080Y-71394110D01*
X158754889Y-71326312D01*
X158731499Y-71310361D01*
X158399407Y-71083580D01*
X158249435Y-71151647D01*
X158158230Y-71191315D01*
X158060331Y-71231209D01*
X157976169Y-71263017D01*
X157972462Y-71264326D01*
X157906631Y-71288424D01*
X157855884Y-71308800D01*
X157831158Y-71321064D01*
X157831116Y-71321099D01*
X157823271Y-71343266D01*
X157809934Y-71397783D01*
X157792430Y-71478520D01*
X157772083Y-71579350D01*
X157750218Y-71694144D01*
X157748429Y-71703822D01*
X157726496Y-71822096D01*
X157706360Y-71929458D01*
X157689320Y-72019083D01*
X157676672Y-72084149D01*
X157669716Y-72117832D01*
X157669594Y-72118346D01*
X157665361Y-72132675D01*
X157657129Y-72143493D01*
X157639967Y-72151294D01*
X157608942Y-72156571D01*
X157559122Y-72159818D01*
X157485576Y-72161528D01*
X157383371Y-72162193D01*
X157247575Y-72162307D01*
X157230000Y-72162308D01*
X157090122Y-72162224D01*
D12*
X157950000Y-76730000D02*
X158500000Y-76730000D01*
X158500000Y-76730000D02*
X158500000Y-77280000D01*
X157950000Y-87030000D02*
X158500000Y-87030000D01*
X158500000Y-87030000D02*
X158500000Y-86480000D01*
X148750000Y-87030000D02*
X148200000Y-87030000D01*
X148200000Y-87030000D02*
X148200000Y-86480000D01*
X148750000Y-76730000D02*
X148125000Y-76730000D01*
D13*
X164325000Y-76030000D02*
X164325000Y-75530000D01*
X164325000Y-75530000D02*
X164310000Y-75530000D01*
X164310000Y-75530000D02*
X164310000Y-76030000D01*
X164310000Y-76030000D02*
X164325000Y-76030000D01*
X164325000Y-65030000D02*
X164325000Y-64530000D01*
X164325000Y-64530000D02*
X164325000Y-64530000D01*
X164325000Y-64530000D02*
X164325000Y-65030000D01*
X164325000Y-65030000D02*
X164325000Y-65030000D01*
X165810000Y-76030000D02*
X165810000Y-76030000D01*
X165810000Y-76030000D02*
X164325000Y-76030000D01*
X164325000Y-76030000D02*
X164325000Y-76030000D01*
X164325000Y-76030000D02*
X165810000Y-76030000D01*
X164310000Y-64530000D02*
X164310000Y-64530000D01*
X164310000Y-64530000D02*
X165810000Y-64530000D01*
X165810000Y-64530000D02*
X165810000Y-64530000D01*
X165810000Y-64530000D02*
X164310000Y-64530000D01*
X164275000Y-88450000D02*
X164275000Y-87950000D01*
X164275000Y-87950000D02*
X164260000Y-87950000D01*
X164260000Y-87950000D02*
X164260000Y-88450000D01*
X164260000Y-88450000D02*
X164275000Y-88450000D01*
X164275000Y-77450000D02*
X164275000Y-76950000D01*
X164275000Y-76950000D02*
X164275000Y-76950000D01*
X164275000Y-76950000D02*
X164275000Y-77450000D01*
X164275000Y-77450000D02*
X164275000Y-77450000D01*
X165760000Y-88450000D02*
X165760000Y-88450000D01*
X165760000Y-88450000D02*
X164275000Y-88450000D01*
X164275000Y-88450000D02*
X164275000Y-88450000D01*
X164275000Y-88450000D02*
X165760000Y-88450000D01*
X164260000Y-76950000D02*
X164260000Y-76950000D01*
X164260000Y-76950000D02*
X165760000Y-76950000D01*
X165760000Y-76950000D02*
X165760000Y-76950000D01*
X165760000Y-76950000D02*
X164260000Y-76950000D01*
D12*
X143070000Y-83730000D02*
X142380000Y-83730000D01*
X142340000Y-85610000D02*
X142340000Y-84970000D01*
X144560000Y-85610000D02*
X144560000Y-84970000D01*
X143290000Y-83930000D02*
X143620000Y-83930000D01*
X143280000Y-86650000D02*
X143620000Y-86650000D01*
X143070000Y-83730000D02*
G75*
G02*
X143290000Y-83930000I-90000J-320000D01*
G01*
X147942258Y-67902500D02*
X147467742Y-67902500D01*
X147942258Y-66857500D02*
X147467742Y-66857500D01*
X140462164Y-67970000D02*
X140677836Y-67970000D01*
X140462164Y-68690000D02*
X140677836Y-68690000D01*
X148070000Y-68982164D02*
X148070000Y-69197836D01*
X147350000Y-68982164D02*
X147350000Y-69197836D01*
X149090000Y-68982164D02*
X149090000Y-69197836D01*
X148370000Y-68982164D02*
X148370000Y-69197836D01*
X147050000Y-68982164D02*
X147050000Y-69197836D01*
X146330000Y-68982164D02*
X146330000Y-69197836D01*
X137520000Y-75720000D02*
X137520000Y-77520000D01*
X140740000Y-77520000D02*
X140740000Y-75070000D01*
X142730000Y-72280000D02*
X142730000Y-74730000D01*
X145950000Y-74080000D02*
X145950000Y-72280000D01*
X142804500Y-69581858D02*
X142804500Y-69107342D01*
X141759500Y-69581858D02*
X141759500Y-69107342D01*
X143299500Y-69581858D02*
X143299500Y-69107342D01*
X144344500Y-69581858D02*
X144344500Y-69107342D01*
X137537500Y-80452742D02*
X137537500Y-80927258D01*
X138582500Y-80452742D02*
X138582500Y-80927258D01*
X139212742Y-74372500D02*
X139687258Y-74372500D01*
X139212742Y-73327500D02*
X139687258Y-73327500D01*
X140517258Y-85667500D02*
X140042742Y-85667500D01*
X140517258Y-86712500D02*
X140042742Y-86712500D01*
X140517258Y-83867500D02*
X140042742Y-83867500D01*
X140517258Y-84912500D02*
X140042742Y-84912500D01*
X143137258Y-77687500D02*
X142662742Y-77687500D01*
X143137258Y-78732500D02*
X142662742Y-78732500D01*
X144080000Y-64670000D02*
X144080000Y-66000000D01*
X142750000Y-64670000D02*
X144080000Y-64670000D01*
X141480000Y-64670000D02*
X141480000Y-67330000D01*
X141480000Y-67330000D02*
X128720000Y-67330000D01*
X141480000Y-64670000D02*
X128720000Y-64670000D01*
X128720000Y-64670000D02*
X128720000Y-67330000D01*
X140830000Y-72850000D02*
X136930000Y-72850000D01*
X140830000Y-70850000D02*
X136930000Y-70850000D01*
X140830000Y-72850000D02*
X140830000Y-70850000D01*
X143342164Y-76990000D02*
X143557836Y-76990000D01*
X143342164Y-76270000D02*
X143557836Y-76270000D01*
X143342164Y-75980000D02*
X143557836Y-75980000D01*
X143342164Y-75260000D02*
X143557836Y-75260000D01*
X144750000Y-77852164D02*
X144750000Y-78067836D01*
X145470000Y-77852164D02*
X145470000Y-78067836D01*
X145470000Y-75962164D02*
X145470000Y-76177836D01*
X144750000Y-75962164D02*
X144750000Y-76177836D01*
X147247836Y-75270000D02*
X147032164Y-75270000D01*
X147247836Y-75990000D02*
X147032164Y-75990000D01*
X143087836Y-82760000D02*
X142872164Y-82760000D01*
X143087836Y-83480000D02*
X142872164Y-83480000D01*
X137160000Y-85182164D02*
X137160000Y-85397836D01*
X137880000Y-85182164D02*
X137880000Y-85397836D01*
X142902164Y-79840000D02*
X143117836Y-79840000D01*
X142902164Y-79120000D02*
X143117836Y-79120000D01*
X142802164Y-81920000D02*
X143017836Y-81920000D01*
X142802164Y-81200000D02*
X143017836Y-81200000D01*
D10*
X152588095Y-74832380D02*
X152588095Y-75641904D01*
X152635714Y-75737142D01*
X152683333Y-75784761D01*
X152778571Y-75832380D01*
X152969047Y-75832380D01*
X153064285Y-75784761D01*
X153111904Y-75737142D01*
X153159523Y-75641904D01*
X153159523Y-74832380D01*
X154159523Y-75832380D02*
X153588095Y-75832380D01*
X153873809Y-75832380D02*
X153873809Y-74832380D01*
X153778571Y-74975238D01*
X153683333Y-75070476D01*
X153588095Y-75118095D01*
D14*
X165104523Y-70703333D02*
X166011666Y-70703333D01*
X166193095Y-70763809D01*
X166314047Y-70884761D01*
X166374523Y-71066190D01*
X166374523Y-71187142D01*
X166374523Y-69433333D02*
X166374523Y-70159047D01*
X166374523Y-69796190D02*
X165104523Y-69796190D01*
X165285952Y-69917142D01*
X165406904Y-70038095D01*
X165467380Y-70159047D01*
X165084523Y-83113333D02*
X165991666Y-83113333D01*
X166173095Y-83173809D01*
X166294047Y-83294761D01*
X166354523Y-83476190D01*
X166354523Y-83597142D01*
X165205476Y-82569047D02*
X165145000Y-82508571D01*
X165084523Y-82387619D01*
X165084523Y-82085238D01*
X165145000Y-81964285D01*
X165205476Y-81903809D01*
X165326428Y-81843333D01*
X165447380Y-81843333D01*
X165628809Y-81903809D01*
X166354523Y-82629523D01*
X166354523Y-81843333D01*
D10*
X144702380Y-66333333D02*
X145416666Y-66333333D01*
X145559523Y-66380952D01*
X145654761Y-66476190D01*
X145702380Y-66619047D01*
X145702380Y-66714285D01*
X144702380Y-65952380D02*
X144702380Y-65333333D01*
X145083333Y-65666666D01*
X145083333Y-65523809D01*
X145130952Y-65428571D01*
X145178571Y-65380952D01*
X145273809Y-65333333D01*
X145511904Y-65333333D01*
X145607142Y-65380952D01*
X145654761Y-65428571D01*
X145702380Y-65523809D01*
X145702380Y-65809523D01*
X145654761Y-65904761D01*
X145607142Y-65952380D01*
M02*
