M48
; DRILL file {KiCad 5.1.7-a382d34a8~87~ubuntu20.04.1} date Fri Nov 13 02:39:58 2020
; FORMAT={-:-/ absolute / inch / decimal}
; #@! TF.CreationDate,2020-11-13T02:39:58+00:00
; #@! TF.GenerationSoftware,Kicad,Pcbnew,5.1.7-a382d34a8~87~ubuntu20.04.1
FMAT,2
INCH
T1C0.0157
T2C0.0295
T3C0.0394
%
G90
G05
T1
X5.3555Y-3.0803
X5.3559Y-3.0024
X5.3559Y-3.0413
X5.3708Y-2.9167
X5.4008Y-2.9854
X5.4195Y-3.0205
X5.4201Y-2.6563
X5.4354Y-3.1106
X5.4673Y-3.2955
X5.5551Y-3.2421
X5.5854Y-3.272
X5.6Y-2.9878
X5.6063Y-2.8378
X5.6692Y-2.7307
X5.7803Y-3.2945
X5.7803Y-3.326
X5.7803Y-3.3575
X5.7803Y-3.389
X5.8094Y-3.2787
X5.8094Y-3.3102
X5.8094Y-3.3417
X5.8094Y-3.3732
X5.8293Y-2.7667
X5.8405Y-2.8834
X5.8602Y-2.7969
X5.872Y-3.4512
X5.8776Y-2.8335
X5.8878Y-3.4744
X5.9035Y-3.4512
X5.9193Y-3.4744
X5.935Y-3.4512
X5.9508Y-3.4744
X5.9665Y-3.4512
X5.9823Y-3.4744
X5.998Y-3.4512
X6.0138Y-3.4744
X6.0295Y-3.4512
X6.0453Y-3.4744
X6.061Y-3.4512
X6.0768Y-3.4744
X6.1047Y-2.6287
X6.1283Y-2.6524
X6.1327Y-2.6248
X6.1386Y-3.315
X6.1394Y-3.1201
X6.152Y-2.676
X6.1563Y-2.6484
X6.1756Y-2.6996
X6.1799Y-2.672
X6.1992Y-2.7232
X6.2035Y-2.6957
X6.2228Y-2.7469
X6.2272Y-2.7193
X6.2465Y-2.7705
X6.2508Y-2.7429
X6.2701Y-2.7941
X6.2744Y-2.7665
X6.2937Y-2.8177
X6.298Y-2.7902
X6.3173Y-2.8413
X6.3217Y-2.8138
X6.3409Y-2.865
X6.3453Y-2.8374
X6.3685Y-2.8598
X6.528Y-2.5819
X6.528Y-2.8594
X6.5287Y-3.4409
T3
X5.1201Y-2.5984
X5.2201Y-2.5984
X5.3201Y-2.5984
X5.4201Y-2.5984
X5.5201Y-2.5984
X5.6201Y-2.5984
T2
G00X5.1071Y-2.7913
M15
G01X5.1465Y-2.7913
M16
G05
G00X5.1071Y-3.2303
M15
G01X5.1465Y-3.2303
M16
G05
G00X5.2734Y-2.7923
M15
G01X5.2951Y-2.7923
M16
G05
G00X5.2734Y-3.2323
M15
G01X5.2951Y-3.2323
M16
G05
T0
M30
